<?xml version="1.0" encoding="UTF-8"?>
<svg xmlns="http://www.w3.org/2000/svg" xmlns:xlink="http://www.w3.org/1999/xlink" width="219.012pt" height="207.058pt" viewBox="0 0 219.012 207.058">
<defs>
<g>
<g id="glyph-0-0">
<path d="M 6.25 -6.71875 C 6.328125 -6.859375 6.328125 -6.875 6.328125 -6.90625 C 6.328125 -6.96875 6.265625 -7.109375 6.125 -7.109375 C 6.015625 -7.109375 5.984375 -7.046875 5.90625 -6.90625 L 1.453125 1.75 C 1.375 1.890625 1.375 1.921875 1.375 1.9375 C 1.375 2.03125 1.453125 2.140625 1.578125 2.140625 C 1.703125 2.140625 1.71875 2.078125 1.796875 1.9375 Z M 6.25 -6.71875 "/>
</g>
<g id="glyph-1-0">
<path d="M 6.8125 -3.25 C 6.96875 -3.25 7.15625 -3.25 7.15625 -3.4375 C 7.15625 -3.640625 6.96875 -3.640625 6.828125 -3.640625 L 0.890625 -3.640625 C 0.75 -3.640625 0.5625 -3.640625 0.5625 -3.4375 C 0.5625 -3.25 0.75 -3.25 0.890625 -3.25 Z M 6.828125 -1.3125 C 6.96875 -1.3125 7.15625 -1.3125 7.15625 -1.515625 C 7.15625 -1.71875 6.96875 -1.71875 6.8125 -1.71875 L 0.890625 -1.71875 C 0.75 -1.71875 0.5625 -1.71875 0.5625 -1.515625 C 0.5625 -1.3125 0.75 -1.3125 0.890625 -1.3125 Z M 6.828125 -1.3125 "/>
</g>
<g id="glyph-1-1">
<path d="M 3.28125 2.375 C 3.28125 2.34375 3.28125 2.328125 3.109375 2.15625 C 1.875 0.90625 1.5625 -0.96875 1.5625 -2.484375 C 1.5625 -4.203125 1.9375 -5.9375 3.15625 -7.171875 C 3.28125 -7.296875 3.28125 -7.3125 3.28125 -7.34375 C 3.28125 -7.40625 3.25 -7.4375 3.1875 -7.4375 C 3.078125 -7.4375 2.1875 -6.765625 1.609375 -5.5 C 1.09375 -4.421875 0.984375 -3.3125 0.984375 -2.484375 C 0.984375 -1.703125 1.09375 -0.5 1.640625 0.609375 C 2.234375 1.828125 3.078125 2.484375 3.1875 2.484375 C 3.25 2.484375 3.28125 2.453125 3.28125 2.375 Z M 3.28125 2.375 "/>
</g>
<g id="glyph-1-2">
<path d="M 2.875 -2.484375 C 2.875 -3.25 2.765625 -4.453125 2.21875 -5.578125 C 1.625 -6.796875 0.765625 -7.4375 0.671875 -7.4375 C 0.609375 -7.4375 0.5625 -7.40625 0.5625 -7.34375 C 0.5625 -7.3125 0.5625 -7.296875 0.75 -7.109375 C 1.71875 -6.125 2.296875 -4.546875 2.296875 -2.484375 C 2.296875 -0.78125 1.921875 0.96875 0.6875 2.21875 C 0.5625 2.328125 0.5625 2.34375 0.5625 2.375 C 0.5625 2.4375 0.609375 2.484375 0.671875 2.484375 C 0.765625 2.484375 1.65625 1.8125 2.25 0.546875 C 2.75 -0.546875 2.875 -1.640625 2.875 -2.484375 Z M 2.875 -2.484375 "/>
</g>
<g id="glyph-2-0">
<path d="M 0.359375 -6.78125 L 0.359375 -6.484375 C 0.484375 -6.484375 0.609375 -6.484375 0.734375 -6.484375 C 1.09375 -6.484375 1.375 -6.4375 1.375 -6.046875 L 1.375 -0.75 C 1.375 -0.359375 1.046875 -0.3125 0.71875 -0.3125 C 0.578125 -0.3125 0.46875 -0.3125 0.359375 -0.3125 L 0.359375 -0.015625 L 3.21875 -0.015625 L 3.21875 -0.3125 C 3.09375 -0.3125 2.953125 -0.3125 2.828125 -0.3125 C 2.484375 -0.3125 2.203125 -0.359375 2.203125 -0.71875 L 2.203125 -1.78125 L 3.765625 -1.78125 C 4.65625 -1.875 5.640625 -2.484375 5.640625 -3.625 C 5.640625 -4.765625 4.609375 -5.5 3.5 -5.5 L 2.203125 -5.5 L 2.203125 -6.015625 C 2.203125 -6.4375 2.546875 -6.484375 2.953125 -6.484375 L 3.21875 -6.484375 L 3.21875 -6.78125 Z M 2.203125 -2.078125 L 2.203125 -5.1875 L 3.234375 -5.1875 C 3.46875 -5.1875 3.6875 -5.171875 3.90625 -5.0625 C 4.40625 -4.796875 4.65625 -4.203125 4.65625 -3.65625 C 4.65625 -2.953125 4.25 -2.203125 3.4375 -2.078125 Z M 2.203125 -2.078125 "/>
</g>
<g id="glyph-3-0">
<path d="M 7.546875 -6.890625 C 7.546875 -6.921875 7.515625 -7 7.4375 -7 C 7.40625 -7 7.390625 -6.984375 7.28125 -6.875 L 6.59375 -6.109375 C 6.5 -6.25 6.046875 -7 4.9375 -7 C 2.734375 -7 0.5 -4.796875 0.5 -2.5 C 0.5 -0.921875 1.59375 0.21875 3.203125 0.21875 C 3.640625 0.21875 4.09375 0.125 4.4375 -0.015625 C 4.9375 -0.21875 5.125 -0.421875 5.3125 -0.625 C 5.390625 -0.375 5.65625 -0.015625 5.75 -0.015625 C 5.796875 -0.015625 5.828125 -0.046875 5.828125 -0.046875 C 5.84375 -0.0625 5.9375 -0.453125 6 -0.65625 L 6.1875 -1.421875 C 6.21875 -1.59375 6.265625 -1.75 6.3125 -1.921875 C 6.421875 -2.375 6.421875 -2.390625 7 -2.40625 C 7.046875 -2.40625 7.15625 -2.40625 7.15625 -2.59375 C 7.15625 -2.671875 7.109375 -2.703125 7.03125 -2.703125 C 6.796875 -2.703125 6.21875 -2.671875 5.984375 -2.671875 C 5.671875 -2.671875 4.90625 -2.703125 4.59375 -2.703125 C 4.5 -2.703125 4.390625 -2.703125 4.390625 -2.515625 C 4.390625 -2.40625 4.46875 -2.40625 4.6875 -2.40625 C 4.6875 -2.40625 4.984375 -2.40625 5.203125 -2.375 C 5.46875 -2.34375 5.515625 -2.328125 5.515625 -2.1875 C 5.515625 -2.109375 5.40625 -1.65625 5.3125 -1.296875 C 5.03125 -0.203125 3.734375 -0.09375 3.390625 -0.09375 C 2.4375 -0.09375 1.40625 -0.65625 1.40625 -2.171875 C 1.40625 -2.484375 1.5 -4.125 2.546875 -5.40625 C 3.078125 -6.078125 4.03125 -6.6875 5.015625 -6.6875 C 6.03125 -6.6875 6.625 -5.921875 6.625 -4.765625 C 6.625 -4.375 6.59375 -4.359375 6.59375 -4.265625 C 6.59375 -4.171875 6.703125 -4.171875 6.734375 -4.171875 C 6.859375 -4.171875 6.859375 -4.1875 6.921875 -4.359375 Z M 7.546875 -6.890625 "/>
</g>
<g id="glyph-3-1">
<path d="M 3.71875 -6.09375 C 3.78125 -6.328125 3.8125 -6.421875 4 -6.453125 C 4.09375 -6.46875 4.40625 -6.46875 4.609375 -6.46875 C 5.3125 -6.46875 6.40625 -6.46875 6.40625 -5.484375 C 6.40625 -5.15625 6.25 -4.46875 5.859375 -4.078125 C 5.609375 -3.8125 5.078125 -3.5 4.1875 -3.5 L 3.078125 -3.5 Z M 5.15625 -3.375 C 6.15625 -3.59375 7.328125 -4.28125 7.328125 -5.28125 C 7.328125 -6.140625 6.4375 -6.78125 5.140625 -6.78125 L 2.3125 -6.78125 C 2.109375 -6.78125 2.03125 -6.78125 2.03125 -6.578125 C 2.03125 -6.46875 2.109375 -6.46875 2.296875 -6.46875 C 2.328125 -6.46875 2.515625 -6.46875 2.671875 -6.453125 C 2.859375 -6.421875 2.953125 -6.421875 2.953125 -6.296875 C 2.953125 -6.25 2.9375 -6.21875 2.90625 -6.109375 L 1.578125 -0.78125 C 1.484375 -0.390625 1.453125 -0.3125 0.671875 -0.3125 C 0.5 -0.3125 0.40625 -0.3125 0.40625 -0.109375 C 0.40625 0 0.53125 0 0.546875 0 C 0.828125 0 1.515625 -0.03125 1.796875 -0.03125 C 2.078125 -0.03125 2.78125 0 3.0625 0 C 3.140625 0 3.25 0 3.25 -0.203125 C 3.25 -0.3125 3.171875 -0.3125 2.96875 -0.3125 C 2.609375 -0.3125 2.328125 -0.3125 2.328125 -0.484375 C 2.328125 -0.546875 2.34375 -0.59375 2.359375 -0.65625 L 3.015625 -3.28125 L 4.203125 -3.28125 C 5.09375 -3.28125 5.28125 -2.734375 5.28125 -2.375 C 5.28125 -2.234375 5.203125 -1.921875 5.140625 -1.703125 C 5.0625 -1.421875 4.984375 -1.046875 4.984375 -0.859375 C 4.984375 0.21875 6.171875 0.21875 6.296875 0.21875 C 7.140625 0.21875 7.484375 -0.78125 7.484375 -0.921875 C 7.484375 -1.046875 7.375 -1.046875 7.375 -1.046875 C 7.28125 -1.046875 7.265625 -0.96875 7.25 -0.90625 C 7 -0.171875 6.5625 0 6.34375 0 C 6.015625 0 5.9375 -0.21875 5.9375 -0.609375 C 5.9375 -0.90625 6 -1.421875 6.046875 -1.734375 C 6.0625 -1.875 6.078125 -2.0625 6.078125 -2.203125 C 6.078125 -2.96875 5.421875 -3.28125 5.15625 -3.375 Z M 5.15625 -3.375 "/>
</g>
<g id="glyph-3-2">
<path d="M 4.359375 -7.0625 C 4.40625 -7.1875 4.40625 -7.234375 4.40625 -7.25 C 4.40625 -7.359375 4.3125 -7.4375 4.203125 -7.4375 C 4.140625 -7.4375 4.0625 -7.40625 4.03125 -7.359375 L 0.59375 2.109375 C 0.546875 2.234375 0.546875 2.265625 0.546875 2.28125 C 0.546875 2.390625 0.640625 2.484375 0.75 2.484375 C 0.875 2.484375 0.90625 2.40625 0.96875 2.25 Z M 4.359375 -7.0625 "/>
</g>
<g id="glyph-4-0">
<path d="M 2.328125 -4.40625 C 2.328125 -4.59375 2.3125 -4.609375 2.109375 -4.609375 C 1.671875 -4.171875 1.046875 -4.15625 0.75 -4.15625 L 0.75 -3.90625 C 0.921875 -3.90625 1.375 -3.90625 1.765625 -4.109375 L 1.765625 -0.5625 C 1.765625 -0.34375 1.765625 -0.25 1.0625 -0.25 L 0.8125 -0.25 L 0.8125 0 C 0.921875 0 1.78125 -0.03125 2.046875 -0.03125 C 2.25 -0.03125 3.125 0 3.28125 0 L 3.28125 -0.25 L 3.015625 -0.25 C 2.328125 -0.25 2.328125 -0.34375 2.328125 -0.5625 Z M 2.328125 -4.40625 "/>
</g>
<g id="glyph-5-0">
<path d="M 3.46875 -4.890625 C 3.515625 -4.984375 3.515625 -5 3.515625 -5.03125 C 3.515625 -5.140625 3.421875 -5.203125 3.34375 -5.203125 C 3.234375 -5.203125 3.203125 -5.125 3.15625 -5.03125 L 0.578125 1.421875 C 0.53125 1.515625 0.53125 1.53125 0.53125 1.5625 C 0.53125 1.671875 0.625 1.734375 0.703125 1.734375 C 0.8125 1.734375 0.859375 1.65625 0.890625 1.5625 Z M 3.46875 -4.890625 "/>
</g>
<g id="glyph-5-1">
<path d="M 3.09375 -0.96875 C 3.0625 -1.375 2.828125 -3.0625 1.703125 -3.0625 C 1.296875 -3.0625 0.9375 -2.84375 0.75 -2.65625 C 0.3125 -2.28125 0.234375 -1.828125 0.234375 -1.8125 C 0.234375 -1.734375 0.328125 -1.734375 0.34375 -1.734375 C 0.4375 -1.734375 0.4375 -1.734375 0.484375 -1.84375 C 0.625 -2.25 1.140625 -2.5 1.609375 -2.5 C 2.71875 -2.5 2.859375 -1.390625 2.859375 -0.6875 C 2.859375 -0.328125 2.84375 -0.25 2.8125 -0.1875 C 2.65625 0.34375 2.453125 1.109375 2.453125 1.3125 C 2.453125 1.390625 2.484375 1.484375 2.5625 1.484375 C 2.609375 1.484375 2.6875 1.484375 2.796875 1.125 C 2.890625 0.859375 3.015625 0.34375 3.078125 -0.15625 C 3.09375 -0.40625 3.484375 -1.34375 3.640625 -1.671875 C 3.734375 -1.890625 3.875 -2.21875 4.203125 -2.8125 C 4.21875 -2.84375 4.234375 -2.875 4.234375 -2.90625 C 4.234375 -2.984375 4.15625 -2.984375 4.125 -2.984375 C 4.109375 -2.984375 4.046875 -2.984375 4.03125 -2.953125 C 3.9375 -2.8125 3.40625 -1.8125 3.09375 -0.96875 Z M 3.09375 -0.96875 "/>
</g>
<g id="glyph-6-0">
<path d="M 4.5625 -0.90625 C 4.5625 -1.140625 4.5625 -1.1875 4.421875 -1.1875 C 3.8125 -1.203125 2.84375 -1.28125 1.9375 -1.71875 C 0.875 -2.25 0.46875 -2.875 0.21875 -3.265625 C 0.1875 -3.3125 0.125 -3.3125 0 -3.3125 C -0.234375 -3.3125 -0.234375 -3.296875 -0.234375 -3.0625 L -0.234375 -2.890625 C 1.109375 -0.46875 3.34375 0 4.359375 0 C 4.5625 0 4.5625 -0.015625 4.5625 -0.28125 Z M 4.5625 -0.90625 "/>
</g>
<g id="glyph-6-1">
<path d="M 4.703125 1.703125 C 3.359375 -0.71875 1.125 -1.1875 0.109375 -1.1875 C -0.09375 -1.1875 -0.09375 -1.1875 -0.09375 -0.90625 L -0.09375 -0.28125 C -0.09375 -0.046875 -0.09375 0 0.046875 0 C 0.640625 0.015625 1.625 0.09375 2.515625 0.53125 C 3.59375 1.0625 4 1.6875 4.25 2.078125 C 4.28125 2.125 4.328125 2.125 4.46875 2.125 C 4.6875 2.125 4.703125 2.109375 4.703125 1.859375 Z M 4.703125 1.703125 "/>
</g>
<g id="glyph-6-2">
<path d="M 4.5625 -0.90625 C 4.5625 -1.1875 4.5625 -1.1875 4.359375 -1.1875 C 3.34375 -1.1875 1.109375 -0.71875 -0.234375 1.703125 L -0.234375 1.859375 C -0.234375 2.109375 -0.234375 2.125 0 2.125 C 0.1875 2.125 0.203125 2.109375 0.25 2.046875 C 1.0625 0.75 2.4375 0.046875 4.4375 0 C 4.5625 0 4.5625 -0.0625 4.5625 -0.28125 Z M 4.5625 -0.90625 "/>
</g>
<g id="glyph-6-3">
<path d="M 4.703125 -3.0625 C 4.703125 -3.296875 4.6875 -3.3125 4.46875 -3.3125 C 4.28125 -3.3125 4.265625 -3.296875 4.21875 -3.234375 C 3.40625 -1.9375 2.03125 -1.234375 0.015625 -1.1875 C -0.09375 -1.1875 -0.09375 -1.125 -0.09375 -0.90625 L -0.09375 -0.28125 C -0.09375 -0.015625 -0.09375 0 0.109375 0 C 1.125 0 3.359375 -0.46875 4.703125 -2.890625 Z M 4.703125 -3.0625 "/>
</g>
<g id="glyph-7-0">
<path d="M 0.390625 -4.71875 L 0.390625 -4.46875 C 0.46875 -4.46875 0.5625 -4.46875 0.65625 -4.46875 C 0.890625 -4.46875 1.109375 -4.4375 1.109375 -4.1875 C 1.109375 -4.15625 1.109375 -4.109375 1.109375 -4.0625 L 1.109375 -0.546875 C 1.109375 -0.28125 0.875 -0.25 0.640625 -0.25 C 0.5625 -0.25 0.46875 -0.25 0.390625 -0.25 L 0.390625 0 L 2.65625 0 L 2.65625 -0.25 C 2.5625 -0.25 2.4375 -0.25 2.3125 -0.25 C 1.953125 -0.25 1.765625 -0.28125 1.765625 -0.578125 L 1.765625 -2.234375 L 2.453125 -2.234375 C 2.703125 -2.234375 2.984375 -2.21875 3.125 -2 C 3.21875 -1.859375 3.21875 -1.671875 3.21875 -1.5 L 3.21875 -1.421875 L 3.46875 -1.421875 L 3.46875 -3.296875 L 3.21875 -3.296875 L 3.21875 -3.234375 C 3.21875 -3.0625 3.21875 -2.875 3.125 -2.71875 C 2.984375 -2.515625 2.703125 -2.484375 2.453125 -2.484375 L 1.765625 -2.484375 L 1.765625 -4.21875 C 1.765625 -4.453125 1.890625 -4.46875 2.046875 -4.46875 L 3 -4.46875 C 3.5 -4.46875 4.046875 -4.453125 4.3125 -3.921875 C 4.421875 -3.671875 4.453125 -3.390625 4.5 -3.125 L 4.734375 -3.125 L 4.515625 -4.71875 Z M 0.390625 -4.71875 "/>
</g>
<g id="glyph-7-1">
<path d="M 0.21875 -4.75 L 0.21875 -4.5 L 0.390625 -4.5 C 0.546875 -4.5 0.71875 -4.484375 0.8125 -4.40625 C 0.890625 -4.328125 0.9375 -4.1875 0.984375 -4.078125 L 1.265625 -3.421875 C 1.609375 -2.640625 1.9375 -1.859375 2.265625 -1.0625 L 2.65625 -0.15625 C 2.71875 -0.03125 2.734375 0.125 2.921875 0.125 C 3.09375 0.125 3.125 -0.03125 3.171875 -0.140625 L 3.5625 -1.046875 C 3.921875 -1.890625 4.28125 -2.734375 4.640625 -3.578125 L 4.796875 -3.9375 C 4.984375 -4.390625 5.265625 -4.484375 5.625 -4.5 L 5.625 -4.75 L 4.125 -4.75 L 4.125 -4.5 C 4.3125 -4.5 4.5625 -4.421875 4.59375 -4.21875 L 4.59375 -4.140625 C 4.59375 -4.078125 4.5625 -4.03125 4.546875 -3.984375 L 4.453125 -3.75 C 4.125 -2.984375 3.796875 -2.234375 3.46875 -1.46875 C 3.359375 -1.203125 3.25 -0.9375 3.125 -0.6875 C 2.75 -1.578125 2.359375 -2.46875 1.984375 -3.359375 L 1.6875 -4.046875 C 1.65625 -4.140625 1.59375 -4.234375 1.59375 -4.3125 C 1.59375 -4.484375 1.90625 -4.5 2.09375 -4.5 L 2.140625 -4.5 L 2.140625 -4.75 L 1.296875 -4.75 L 1.15625 -4.71875 L 0.46875 -4.71875 Z M 0.21875 -4.75 "/>
</g>
<g id="glyph-7-2">
<path d="M 0.3125 -0.25 L 0.3125 0 L 1.859375 0 L 1.859375 -0.25 C 1.671875 -0.25 1.359375 -0.328125 1.359375 -0.578125 C 1.359375 -0.75 1.484375 -0.96875 1.546875 -1.140625 C 1.640625 -1.359375 1.671875 -1.578125 1.8125 -1.578125 L 3.703125 -1.578125 C 3.71875 -1.484375 3.78125 -1.40625 3.8125 -1.3125 C 3.875 -1.109375 3.96875 -0.921875 4.03125 -0.734375 L 4.109375 -0.546875 C 4.125 -0.5 4.125 -0.484375 4.125 -0.4375 C 4.125 -0.265625 3.8125 -0.25 3.609375 -0.25 L 3.578125 -0.25 L 3.578125 0 L 4.421875 0 L 4.5625 -0.03125 L 5.265625 -0.03125 L 5.53125 0 L 5.53125 -0.25 L 5.328125 -0.25 C 5.15625 -0.25 5 -0.265625 4.90625 -0.34375 C 4.8125 -0.4375 4.78125 -0.5625 4.734375 -0.6875 C 4.21875 -2 3.703125 -3.34375 3.171875 -4.65625 C 3.125 -4.78125 3.09375 -4.953125 2.921875 -4.953125 C 2.734375 -4.953125 2.71875 -4.78125 2.671875 -4.671875 C 2.1875 -3.40625 1.625 -2.140625 1.171875 -0.859375 C 0.984375 -0.359375 0.6875 -0.265625 0.3125 -0.25 Z M 1.828125 -1.828125 L 2.71875 -4.078125 L 3.59375 -1.828125 Z M 1.828125 -1.828125 "/>
</g>
<g id="glyph-8-0">
<path d="M 5.453125 -0.578125 C 5.5625 -0.34375 5.890625 -0.015625 6.015625 -0.015625 C 6.09375 -0.015625 6.109375 -0.09375 6.109375 -0.15625 L 6.109375 -1.65625 C 6.109375 -1.71875 6.09375 -1.78125 6.09375 -1.84375 C 6.09375 -2.171875 6.359375 -2.171875 6.6875 -2.171875 L 6.734375 -2.171875 L 6.734375 -2.453125 L 6.09375 -2.421875 L 4.15625 -2.421875 L 4.15625 -2.171875 C 4.3125 -2.171875 4.453125 -2.1875 4.609375 -2.1875 C 4.984375 -2.1875 5.3125 -2.125 5.3125 -1.734375 C 5.3125 -1.671875 5.296875 -1.59375 5.296875 -1.53125 C 5.296875 -1.421875 5.3125 -1.328125 5.3125 -1.234375 C 5.3125 -0.71875 4.953125 -0.09375 3.84375 -0.09375 C 3 -0.09375 2.203125 -0.546875 1.796875 -1.296875 C 1.5 -1.84375 1.421875 -2.484375 1.421875 -3.09375 C 1.421875 -3.71875 1.53125 -4.375 1.84375 -4.90625 C 2.25 -5.5625 3 -6.015625 3.78125 -6.015625 C 4.859375 -6.015625 5.609375 -5.0625 5.796875 -4.015625 C 5.8125 -3.90625 5.8125 -3.734375 5.953125 -3.734375 C 6.078125 -3.734375 6.109375 -3.8125 6.109375 -3.890625 L 6.109375 -5.875 C 6.109375 -5.9375 6.109375 -6.015625 6.109375 -6.09375 C 6.109375 -6.1875 6.109375 -6.296875 6 -6.296875 C 5.84375 -6.296875 5.609375 -5.765625 5.390625 -5.515625 C 5.03125 -6.046875 4.28125 -6.296875 3.65625 -6.296875 C 1.9375 -6.296875 0.515625 -4.796875 0.515625 -3.0625 C 0.515625 -1.421875 1.796875 0.1875 3.734375 0.1875 C 4.421875 0.1875 5 0 5.453125 -0.578125 Z M 5.453125 -0.578125 "/>
</g>
<g id="glyph-8-1">
<path d="M 0.265625 -3.84375 L 0.265625 -3.5625 L 0.40625 -3.5625 C 0.671875 -3.5625 0.953125 -3.546875 0.953125 -3.125 L 0.953125 -0.65625 C 0.953125 -0.296875 0.71875 -0.28125 0.265625 -0.28125 L 0.265625 -0.015625 L 0.890625 -0.03125 L 2.4375 -0.03125 L 2.4375 -0.28125 L 2.140625 -0.28125 C 1.84375 -0.28125 1.59375 -0.328125 1.59375 -0.65625 L 1.59375 -2.15625 C 1.65625 -2.78125 1.8125 -3.71875 2.71875 -3.71875 C 2.59375 -3.65625 2.546875 -3.515625 2.546875 -3.375 C 2.546875 -3.140625 2.734375 -2.984375 2.9375 -2.984375 C 3.171875 -2.984375 3.328125 -3.171875 3.328125 -3.390625 C 3.328125 -3.75 2.96875 -3.9375 2.65625 -3.9375 C 2.109375 -3.9375 1.671875 -3.484375 1.546875 -2.984375 L 1.53125 -3.9375 Z M 0.265625 -3.84375 "/>
</g>
<g id="glyph-8-2">
<path d="M 2.15625 -4 C 1.125 -3.890625 0.265625 -3.046875 0.265625 -1.90625 C 0.265625 -0.984375 0.953125 0.09375 2.296875 0.09375 C 3.34375 0.09375 4.3125 -0.734375 4.3125 -1.90625 C 4.3125 -2.96875 3.484375 -4 2.28125 -4 C 2.234375 -4 2.203125 -4 2.15625 -4 Z M 1.03125 -1.703125 L 1.03125 -2.09375 C 1.03125 -2.796875 1.265625 -3.78125 2.296875 -3.78125 C 3 -3.78125 3.4375 -3.21875 3.53125 -2.5 C 3.546875 -2.3125 3.546875 -2.125 3.546875 -1.9375 C 3.546875 -1.46875 3.515625 -0.953125 3.1875 -0.578125 C 2.96875 -0.296875 2.625 -0.15625 2.28125 -0.15625 C 1.625 -0.15625 1.171875 -0.65625 1.0625 -1.359375 C 1.046875 -1.484375 1.046875 -1.59375 1.03125 -1.703125 Z M 1.03125 -1.703125 "/>
</g>
<g id="glyph-8-3">
<path d="M 0.171875 -3.84375 L 0.171875 -3.5625 L 0.296875 -3.5625 C 0.796875 -3.5625 0.8125 -3.265625 1.03125 -2.6875 C 1.34375 -1.84375 1.671875 -0.984375 1.96875 -0.140625 C 2 -0.046875 2.03125 0.078125 2.15625 0.09375 L 2.171875 0.09375 C 2.3125 0.09375 2.359375 -0.015625 2.40625 -0.109375 L 2.640625 -0.78125 C 2.8125 -1.25 2.984375 -1.71875 3.15625 -2.1875 C 3.203125 -2.3125 3.28125 -2.453125 3.296875 -2.59375 L 3.3125 -2.59375 C 3.34375 -2.453125 3.40625 -2.3125 3.453125 -2.1875 C 3.546875 -1.953125 3.625 -1.734375 3.703125 -1.5 L 3.96875 -0.78125 C 4.046875 -0.546875 4.125 -0.34375 4.21875 -0.109375 C 4.25 -0.015625 4.296875 0.09375 4.4375 0.09375 L 4.453125 0.09375 C 4.578125 0.078125 4.609375 -0.046875 4.640625 -0.140625 C 4.953125 -1.046875 5.3125 -1.96875 5.640625 -2.859375 C 5.8125 -3.296875 6.015625 -3.5625 6.4375 -3.5625 L 6.4375 -3.84375 L 4.9375 -3.84375 L 4.9375 -3.5625 C 5.171875 -3.5625 5.453125 -3.4375 5.453125 -3.15625 C 5.453125 -2.921875 5.265625 -2.609375 5.1875 -2.34375 C 4.984375 -1.796875 4.765625 -1.265625 4.578125 -0.71875 C 4.28125 -1.5 3.96875 -2.3125 3.703125 -3.125 C 3.671875 -3.1875 3.640625 -3.25 3.640625 -3.3125 C 3.640625 -3.5625 3.984375 -3.5625 4.15625 -3.5625 L 4.15625 -3.84375 L 2.40625 -3.84375 L 2.40625 -3.5625 L 2.53125 -3.5625 C 2.8125 -3.5625 2.96875 -3.53125 3.09375 -3.15625 C 3.125 -3.109375 3.15625 -3.03125 3.15625 -2.96875 L 3.15625 -2.953125 C 3.15625 -2.875 3.109375 -2.78125 3.078125 -2.71875 L 2.921875 -2.25 C 2.734375 -1.78125 2.578125 -1.296875 2.390625 -0.84375 C 2.078125 -1.59375 1.8125 -2.359375 1.546875 -3.125 C 1.53125 -3.1875 1.484375 -3.25 1.484375 -3.3125 C 1.484375 -3.5625 1.8125 -3.5625 2 -3.5625 L 2 -3.84375 Z M 0.171875 -3.84375 "/>
</g>
<g id="glyph-8-4">
<path d="M 1.359375 -5.5 C 1.359375 -4.84375 1.046875 -3.796875 0.171875 -3.796875 L 0.171875 -3.5625 L 0.953125 -3.5625 L 0.953125 -1.21875 C 0.953125 -0.9375 0.96875 -0.671875 1.109375 -0.421875 C 1.328125 -0.046875 1.765625 0.09375 2.171875 0.09375 L 2.25 0.09375 C 2.9375 -0.03125 3.046875 -0.765625 3.046875 -1.296875 L 3.046875 -1.625 L 2.796875 -1.625 C 2.796875 -1.5 2.8125 -1.359375 2.8125 -1.234375 C 2.8125 -0.84375 2.71875 -0.15625 2.1875 -0.15625 C 1.71875 -0.15625 1.609375 -0.71875 1.609375 -1.15625 L 1.609375 -3.5625 L 2.90625 -3.5625 L 2.90625 -3.84375 L 1.609375 -3.84375 L 1.609375 -5.5 Z M 1.359375 -5.5 "/>
</g>
<g id="glyph-8-5">
<path d="M 0.3125 -6.109375 L 0.3125 -5.828125 L 0.46875 -5.828125 C 0.734375 -5.828125 1 -5.796875 1 -5.359375 L 1 -0.859375 C 1 -0.796875 1.015625 -0.734375 1.015625 -0.671875 C 1.015625 -0.296875 0.75 -0.28125 0.359375 -0.28125 L 0.3125 -0.28125 L 0.3125 -0.015625 L 0.953125 -0.03125 L 2.34375 -0.03125 L 2.34375 -0.28125 L 2.140625 -0.28125 C 1.875 -0.28125 1.65625 -0.328125 1.65625 -0.65625 L 1.65625 -2.25 C 1.65625 -2.9375 2.0625 -3.71875 2.90625 -3.71875 C 3.390625 -3.71875 3.53125 -3.28125 3.53125 -2.71875 L 3.53125 -0.625 C 3.53125 -0.296875 3.28125 -0.28125 2.984375 -0.28125 L 2.84375 -0.28125 L 2.84375 -0.015625 L 3.484375 -0.03125 L 4.875 -0.03125 L 4.875 -0.28125 L 4.703125 -0.28125 C 4.453125 -0.28125 4.1875 -0.3125 4.1875 -0.640625 L 4.1875 -2.65625 C 4.1875 -2.921875 4.1875 -3.1875 4.046875 -3.421875 C 3.84375 -3.8125 3.375 -3.9375 2.96875 -3.9375 C 2.46875 -3.9375 1.84375 -3.65625 1.640625 -3.109375 L 1.625 -6.203125 Z M 0.3125 -6.109375 "/>
</g>
<g id="glyph-8-6">
<path d="M 0.296875 -6.109375 L 0.296875 -5.828125 C 0.40625 -5.828125 0.53125 -5.828125 0.65625 -5.828125 C 0.96875 -5.828125 1.25 -5.78125 1.25 -5.4375 L 1.25 -0.6875 C 1.25 -0.328125 0.9375 -0.28125 0.625 -0.28125 C 0.515625 -0.28125 0.390625 -0.28125 0.296875 -0.28125 L 0.296875 -0.015625 L 3 -0.015625 L 3 -0.28125 C 2.890625 -0.28125 2.765625 -0.28125 2.65625 -0.28125 C 2.328125 -0.28125 2.046875 -0.328125 2.046875 -0.671875 L 2.046875 -5.421875 C 2.046875 -5.78125 2.359375 -5.828125 2.671875 -5.828125 C 2.796875 -5.828125 2.90625 -5.828125 3 -5.828125 L 3 -6.109375 Z M 0.296875 -6.109375 "/>
</g>
<g id="glyph-8-7">
<path d="M 0.3125 -3.84375 L 0.3125 -3.5625 L 0.453125 -3.5625 C 0.71875 -3.5625 1 -3.546875 1 -3.125 L 1 -0.65625 C 1 -0.296875 0.765625 -0.28125 0.3125 -0.28125 L 0.3125 -0.015625 L 0.953125 -0.03125 L 2.34375 -0.03125 L 2.34375 -0.28125 L 2.140625 -0.28125 C 1.875 -0.28125 1.65625 -0.328125 1.65625 -0.65625 L 1.65625 -2.4375 C 1.71875 -3.078125 2.140625 -3.71875 2.90625 -3.71875 C 3.484375 -3.71875 3.546875 -3.140625 3.546875 -2.71875 L 3.546875 -0.625 C 3.546875 -0.296875 3.28125 -0.28125 2.984375 -0.28125 L 2.859375 -0.28125 L 2.859375 -0.015625 L 3.484375 -0.03125 L 4.890625 -0.03125 L 4.890625 -0.28125 L 4.6875 -0.28125 C 4.421875 -0.28125 4.203125 -0.328125 4.203125 -0.65625 L 4.203125 -2.4375 C 4.25 -3.078125 4.6875 -3.71875 5.453125 -3.71875 C 6.015625 -3.71875 6.078125 -3.140625 6.078125 -2.71875 L 6.078125 -0.625 C 6.078125 -0.296875 5.828125 -0.28125 5.53125 -0.28125 L 5.390625 -0.28125 L 5.390625 -0.015625 L 7.4375 -0.015625 L 7.4375 -0.28125 L 7.265625 -0.28125 C 7 -0.28125 6.75 -0.3125 6.75 -0.640625 L 6.75 -2.65625 C 6.75 -2.921875 6.734375 -3.1875 6.609375 -3.421875 C 6.375 -3.84375 5.90625 -3.9375 5.46875 -3.9375 C 4.9375 -3.9375 4.359375 -3.59375 4.171875 -3.09375 C 4.09375 -3.71875 3.5 -3.9375 2.96875 -3.9375 C 2.390625 -3.9375 1.828125 -3.625 1.609375 -3.0625 L 1.609375 -3.9375 Z M 0.3125 -3.84375 "/>
</g>
<g id="glyph-8-8">
<path d="M 0.265625 -3.84375 L 0.265625 -3.5625 L 0.4375 -3.5625 C 0.703125 -3.5625 0.953125 -3.546875 0.953125 -3.1875 L 0.953125 1.078125 C 0.953125 1.453125 0.6875 1.453125 0.265625 1.453125 L 0.265625 1.71875 L 0.90625 1.6875 L 2.296875 1.6875 L 2.296875 1.453125 L 2.078125 1.453125 C 1.84375 1.453125 1.609375 1.40625 1.609375 1.09375 L 1.609375 -0.4375 C 1.921875 -0.109375 2.28125 0.09375 2.734375 0.09375 C 3.796875 0.09375 4.78125 -0.78125 4.78125 -1.921875 C 4.78125 -2.9375 4 -3.9375 2.859375 -3.9375 C 2.359375 -3.9375 1.921875 -3.734375 1.59375 -3.375 L 1.59375 -3.9375 Z M 4 -1.796875 C 3.96875 -1.09375 3.546875 -0.140625 2.65625 -0.140625 C 2.1875 -0.140625 1.609375 -0.59375 1.609375 -0.984375 L 1.609375 -2.4375 C 1.609375 -2.5625 1.609375 -2.671875 1.609375 -2.78125 C 1.609375 -3.28125 2.25 -3.6875 2.765625 -3.6875 C 3.609375 -3.6875 4 -2.65625 4 -1.96875 C 4 -1.90625 4 -1.84375 4 -1.796875 Z M 4 -1.796875 "/>
</g>
<g id="glyph-8-9">
<path d="M 1.09375 -3.46875 C 1.328125 -3.6875 1.6875 -3.78125 2.015625 -3.78125 C 2.34375 -3.78125 2.609375 -3.609375 2.796875 -3.34375 C 2.96875 -3.09375 2.96875 -2.8125 2.96875 -2.53125 L 2.96875 -2.359375 C 2.234375 -2.28125 1.5 -2.28125 0.890625 -1.8125 C 0.59375 -1.59375 0.359375 -1.25 0.359375 -0.890625 C 0.359375 -0.15625 1.234375 0.09375 1.828125 0.09375 C 2.375 0.09375 2.796875 -0.1875 3.046875 -0.65625 C 3.125 -0.28125 3.34375 0.046875 3.75 0.046875 C 4.28125 0.046875 4.515625 -0.40625 4.515625 -0.90625 L 4.515625 -1.296875 L 4.28125 -1.296875 L 4.28125 -0.859375 C 4.28125 -0.609375 4.21875 -0.265625 3.9375 -0.265625 C 3.65625 -0.265625 3.625 -0.65625 3.625 -0.859375 L 3.625 -2.59375 C 3.625 -3.53125 2.828125 -4 2.03125 -4 C 1.484375 -4 0.65625 -3.765625 0.65625 -3.0625 C 0.65625 -2.8125 0.796875 -2.625 1.109375 -2.625 C 1.34375 -2.640625 1.484375 -2.84375 1.484375 -3.046875 C 1.484375 -3.296875 1.296875 -3.421875 1.09375 -3.46875 Z M 2.96875 -2.15625 L 2.96875 -1.265625 C 2.96875 -0.65625 2.53125 -0.140625 1.921875 -0.140625 L 1.84375 -0.140625 C 1.421875 -0.171875 1.109375 -0.484375 1.109375 -0.890625 C 1.109375 -1.734375 2.125 -2.15625 2.96875 -2.15625 Z M 2.96875 -2.15625 "/>
</g>
<g id="glyph-8-10">
<path d="M 0.359375 -3.84375 L 0.359375 -3.5625 L 0.5 -3.5625 C 0.78125 -3.5625 1.015625 -3.53125 1.015625 -3.125 L 1.015625 -0.65625 C 1.015625 -0.296875 0.765625 -0.28125 0.328125 -0.28125 L 0.328125 -0.015625 L 2.25 -0.015625 L 2.25 -0.28125 L 2.109375 -0.28125 C 1.875 -0.28125 1.640625 -0.3125 1.640625 -0.59375 L 1.640625 -3.9375 Z M 1.125 -5.984375 C 0.890625 -5.9375 0.703125 -5.75 0.703125 -5.5 C 0.703125 -5.25 0.921875 -5.03125 1.1875 -5.03125 L 1.25 -5.03125 C 1.484375 -5.0625 1.671875 -5.25 1.671875 -5.5 C 1.671875 -5.765625 1.453125 -5.984375 1.1875 -5.984375 Z M 1.125 -5.984375 "/>
</g>
<g id="glyph-8-11">
<path d="M 1.03125 -2.046875 L 3.671875 -2.046875 C 3.78125 -2.046875 3.8125 -2.109375 3.8125 -2.203125 C 3.8125 -3.3125 3.125 -4 2.1875 -4 C 1.09375 -4 0.25 -3.046875 0.25 -1.96875 C 0.25 -0.859375 1.109375 0.09375 2.34375 0.09375 C 2.96875 0.09375 3.609375 -0.359375 3.796875 -0.96875 C 3.796875 -1 3.8125 -1.03125 3.8125 -1.078125 C 3.8125 -1.140625 3.765625 -1.1875 3.6875 -1.1875 C 3.53125 -1.1875 3.53125 -0.921875 3.4375 -0.796875 C 3.21875 -0.421875 2.78125 -0.15625 2.34375 -0.15625 L 2.28125 -0.15625 C 1.8125 -0.171875 1.40625 -0.484375 1.21875 -0.90625 C 1.046875 -1.265625 1.03125 -1.671875 1.03125 -2.046875 Z M 1.03125 -2.265625 C 1.046875 -2.859375 1.296875 -3.546875 1.9375 -3.75 C 2 -3.765625 2.078125 -3.78125 2.15625 -3.78125 C 2.921875 -3.78125 3.203125 -2.984375 3.203125 -2.265625 Z M 1.03125 -2.265625 "/>
</g>
<g id="glyph-8-12">
<path d="M 0.3125 -3.84375 L 0.3125 -3.5625 L 0.453125 -3.5625 C 0.71875 -3.5625 1 -3.546875 1 -3.125 L 1 -0.65625 C 1 -0.296875 0.765625 -0.28125 0.3125 -0.28125 L 0.3125 -0.015625 L 0.953125 -0.03125 L 2.34375 -0.03125 L 2.34375 -0.28125 L 2.140625 -0.28125 C 1.875 -0.28125 1.65625 -0.328125 1.65625 -0.65625 L 1.65625 -2.25 C 1.65625 -2.9375 2.0625 -3.71875 2.90625 -3.71875 C 3.390625 -3.71875 3.53125 -3.28125 3.53125 -2.71875 L 3.53125 -0.625 C 3.53125 -0.296875 3.28125 -0.28125 2.984375 -0.28125 L 2.84375 -0.28125 L 2.84375 -0.015625 L 3.484375 -0.03125 L 4.875 -0.03125 L 4.875 -0.28125 L 4.703125 -0.28125 C 4.453125 -0.28125 4.1875 -0.3125 4.1875 -0.640625 L 4.1875 -2.65625 C 4.1875 -2.921875 4.1875 -3.171875 4.046875 -3.421875 C 3.828125 -3.84375 3.359375 -3.9375 2.921875 -3.9375 C 2.375 -3.9375 1.8125 -3.578125 1.609375 -3.0625 L 1.609375 -3.9375 Z M 0.3125 -3.84375 "/>
</g>
<g id="glyph-8-13">
<path d="M 3.234375 -3.515625 C 3.046875 -3.4375 2.875 -3.34375 2.875 -3.09375 C 2.875 -2.875 3.03125 -2.6875 3.296875 -2.6875 C 3.53125 -2.6875 3.71875 -2.859375 3.71875 -3.125 C 3.71875 -3.75 2.953125 -3.984375 2.40625 -4 L 2.3125 -4 C 1.28125 -4 0.296875 -3.15625 0.296875 -1.9375 C 0.296875 -0.859375 1.15625 0.09375 2.296875 0.09375 C 2.921875 0.09375 3.5 -0.234375 3.75 -0.875 C 3.765625 -0.921875 3.8125 -1.015625 3.8125 -1.078125 C 3.8125 -1.140625 3.75 -1.171875 3.6875 -1.171875 C 3.53125 -1.171875 3.53125 -0.953125 3.453125 -0.828125 C 3.234375 -0.421875 2.84375 -0.15625 2.359375 -0.15625 C 1.390625 -0.15625 1.078125 -1.28125 1.078125 -1.96875 C 1.078125 -2.6875 1.328125 -3.75 2.34375 -3.75 C 2.578125 -3.75 2.84375 -3.71875 3.0625 -3.609375 C 3.125 -3.59375 3.171875 -3.546875 3.234375 -3.515625 Z M 3.234375 -3.515625 "/>
</g>
<g id="glyph-8-14">
<path d="M 1.203125 -3.84375 C 0.96875 -3.8125 0.78125 -3.609375 0.78125 -3.359375 C 0.78125 -3.125 0.96875 -2.875 1.265625 -2.875 C 1.53125 -2.875 1.75 -3.09375 1.75 -3.359375 C 1.75 -3.59375 1.5625 -3.84375 1.28125 -3.84375 C 1.265625 -3.84375 1.21875 -3.84375 1.203125 -3.84375 Z M 1.203125 -0.96875 C 0.96875 -0.9375 0.78125 -0.734375 0.78125 -0.484375 C 0.78125 -0.265625 0.96875 -0.015625 1.25 -0.015625 C 1.46875 -0.015625 1.75 -0.171875 1.75 -0.484375 C 1.75 -0.734375 1.5625 -0.96875 1.265625 -0.96875 C 1.234375 -0.96875 1.21875 -0.96875 1.203125 -0.96875 Z M 1.203125 -0.96875 "/>
</g>
<g id="glyph-8-15">
<path d="M 0.359375 -6.109375 L 0.359375 -5.828125 C 0.46875 -5.828125 0.59375 -5.828125 0.703125 -5.828125 C 1.015625 -5.828125 1.28125 -5.78125 1.28125 -5.4375 L 1.28125 -0.671875 C 1.28125 -0.296875 0.953125 -0.28125 0.609375 -0.28125 L 0.359375 -0.28125 L 0.359375 -0.015625 L 2.9375 -0.015625 L 2.9375 -0.28125 C 2.8125 -0.28125 2.703125 -0.28125 2.59375 -0.28125 C 2.28125 -0.28125 2.03125 -0.328125 2.03125 -0.703125 L 2.03125 -1.59375 L 3.46875 -1.59375 C 4.40625 -1.671875 5.203125 -2.34375 5.203125 -3.28125 L 5.203125 -3.3125 C 5.203125 -4.359375 4.125 -4.921875 3.25 -4.921875 L 2.03125 -4.921875 L 2.03125 -5.40625 C 2.03125 -5.796875 2.328125 -5.828125 2.6875 -5.828125 L 2.9375 -5.828125 L 2.9375 -6.109375 Z M 2.03125 -1.875 L 2.03125 -4.640625 L 3 -4.640625 C 3.34375 -4.640625 3.625 -4.609375 3.921875 -4.3125 C 4.1875 -4.046875 4.328125 -3.65625 4.328125 -3.28125 C 4.328125 -2.625 3.90625 -1.96875 3.171875 -1.875 Z M 2.03125 -1.875 "/>
</g>
<g id="glyph-9-0">
<path d="M 6.171875 -4.515625 C 6.25 -4.5625 6.359375 -4.609375 6.359375 -4.734375 C 6.359375 -4.828125 6.28125 -4.921875 6.15625 -4.921875 C 6.140625 -4.921875 6.109375 -4.921875 6 -4.875 L 0.953125 -2.4375 C 0.859375 -2.40625 0.765625 -2.359375 0.765625 -2.234375 C 0.765625 -2.109375 0.84375 -2.0625 0.953125 -2.03125 L 5.984375 0.390625 C 6.109375 0.453125 6.140625 0.453125 6.15625 0.453125 C 6.296875 0.453125 6.359375 0.328125 6.359375 0.265625 C 6.359375 0.15625 6.296875 0.109375 6.1875 0.078125 L 1.40625 -2.234375 Z M 6.171875 -4.515625 "/>
</g>
<g id="glyph-9-1">
<path d="M 6.90625 -6.046875 C 6.9375 -6.15625 6.9375 -6.171875 6.9375 -6.1875 C 6.9375 -6.203125 6.921875 -6.296875 6.828125 -6.296875 C 6.765625 -6.296875 6.75 -6.265625 6.6875 -6.1875 L 6.140625 -5.59375 C 6.109375 -5.546875 6.0625 -5.515625 6.0625 -5.515625 C 6.046875 -5.515625 6.046875 -5.515625 5.984375 -5.578125 C 5.859375 -5.765625 5.453125 -6.296875 4.515625 -6.296875 C 2.484375 -6.296875 0.453125 -4.3125 0.453125 -2.28125 C 0.453125 -0.875 1.453125 0.203125 2.96875 0.203125 C 3.984375 0.203125 4.671875 -0.234375 4.90625 -0.546875 C 4.984375 -0.34375 5.203125 -0.015625 5.3125 -0.015625 C 5.390625 -0.015625 5.40625 -0.046875 5.453125 -0.234375 L 5.625 -0.921875 C 5.6875 -1.15625 5.765625 -1.53125 5.8125 -1.71875 C 5.9375 -2.140625 5.9375 -2.15625 6.453125 -2.171875 C 6.484375 -2.171875 6.609375 -2.171875 6.609375 -2.328125 C 6.609375 -2.34375 6.609375 -2.4375 6.484375 -2.4375 C 6.40625 -2.4375 6.0625 -2.421875 6 -2.421875 L 5.5 -2.421875 C 5.296875 -2.421875 5.078125 -2.421875 4.875 -2.421875 C 4.671875 -2.421875 4.4375 -2.4375 4.234375 -2.4375 C 4.15625 -2.4375 4.046875 -2.4375 4.046875 -2.28125 C 4.046875 -2.171875 4.125 -2.171875 4.34375 -2.171875 C 4.546875 -2.171875 4.578125 -2.171875 4.8125 -2.15625 C 5.046875 -2.125 5.09375 -2.09375 5.09375 -1.984375 C 5.09375 -1.9375 5.09375 -1.921875 5.03125 -1.703125 C 4.96875 -1.453125 4.859375 -1.015625 4.828125 -0.953125 C 4.53125 -0.296875 3.671875 -0.078125 3.109375 -0.078125 C 2.328125 -0.078125 1.296875 -0.515625 1.296875 -1.96875 C 1.296875 -2.53125 1.484375 -3.84375 2.3125 -4.859375 C 2.84375 -5.5 3.734375 -6.015625 4.578125 -6.015625 C 5.578125 -6.015625 6.109375 -5.25 6.109375 -4.28125 C 6.109375 -3.96875 6.078125 -3.90625 6.078125 -3.84375 C 6.078125 -3.734375 6.1875 -3.734375 6.203125 -3.734375 C 6.328125 -3.734375 6.328125 -3.75 6.375 -3.921875 Z M 6.90625 -6.046875 "/>
</g>
<g id="glyph-10-0">
<path d="M 5.421875 0.359375 L 5.171875 0.359375 C 5.171875 0.453125 5.171875 0.5625 5.171875 0.65625 C 5.171875 0.921875 5.140625 1.15625 4.828125 1.15625 L 0.625 1.15625 C 0.296875 1.15625 0.265625 0.890625 0.265625 0.625 C 0.265625 0.53125 0.265625 0.4375 0.265625 0.359375 L 0.015625 0.359375 L 0.015625 2.671875 L 0.265625 2.671875 C 0.265625 2.5625 0.265625 2.46875 0.265625 2.359375 C 0.265625 2.09375 0.3125 1.859375 0.625 1.859375 L 2.609375 1.859375 L 2.609375 2.78125 C 2.609375 3.203125 2.5 3.609375 2.140625 3.859375 C 1.921875 4 1.6875 4 1.4375 4 L 1.15625 4 C 0.59375 4 -0.15625 4.15625 -0.15625 5.34375 C -0.15625 5.828125 0.25 6.171875 0.71875 6.171875 C 0.78125 6.171875 0.875 6.15625 0.875 6.046875 C 0.875 5.90625 0.71875 5.921875 0.625 5.90625 C 0.34375 5.859375 0.0625 5.671875 0.0625 5.375 C 0.0625 4.953125 0.59375 4.890625 0.953125 4.828125 C 1.578125 4.734375 2.15625 4.765625 2.53125 4.15625 C 2.609375 4.03125 2.6875 3.890625 2.703125 3.75 C 2.890625 4.3125 3.234375 5.140625 4 5.140625 C 5 5.140625 5.375 3.859375 5.421875 3.0625 Z M 2.828125 1.859375 L 4.875 1.859375 C 5.078125 1.859375 5.171875 1.953125 5.171875 2.15625 L 5.171875 2.75 C 5.171875 3.421875 5.03125 4.3125 4.015625 4.3125 C 2.875 4.3125 2.828125 3.296875 2.828125 2.59375 Z M 2.828125 1.859375 "/>
</g>
<g id="glyph-10-1">
<path d="M 1.8125 0.9375 L 1.8125 3.359375 C 1.8125 3.453125 1.875 3.515625 1.96875 3.515625 C 2.359375 3.515625 2.828125 3.390625 3.125 3.109375 C 3.40625 2.8125 3.546875 2.421875 3.546875 2.015625 C 3.546875 1.09375 2.828125 0.234375 1.75 0.234375 C 0.84375 0.234375 -0.078125 0.953125 -0.078125 2.09375 C -0.078125 2.6875 0.296875 3.328125 0.875 3.5 C 0.90625 3.5 0.921875 3.515625 0.953125 3.515625 C 1.015625 3.515625 1.078125 3.453125 1.078125 3.390625 C 1.078125 3.234375 0.8125 3.21875 0.71875 3.140625 C 0.390625 2.9375 0.1875 2.546875 0.1875 2.15625 C 0.1875 1.734375 0.40625 1.328125 0.796875 1.125 C 1.109375 0.953125 1.46875 0.9375 1.8125 0.9375 Z M 2.03125 0.9375 C 2.484375 1.03125 2.96875 1.109375 3.203125 1.578125 C 3.28125 1.703125 3.3125 1.84375 3.3125 2 C 3.3125 2.515625 2.890625 2.859375 2.3125 2.9375 C 2.21875 2.953125 2.125 2.953125 2.03125 2.96875 Z M 2.03125 0.9375 "/>
</g>
<g id="glyph-10-2">
<path d="M 4.890625 1.234375 C 4.328125 1.234375 3.375 0.953125 3.375 0.15625 L 3.15625 0.15625 L 3.15625 0.859375 L 1.109375 0.859375 C 0.859375 0.859375 0.609375 0.875 0.375 1.015625 C 0.0625 1.203125 -0.078125 1.609375 -0.078125 1.96875 C -0.078125 2.640625 0.640625 2.796875 1.15625 2.796875 L 1.4375 2.796875 L 1.4375 2.5625 C 1.328125 2.5625 1.21875 2.5625 1.109375 2.5625 C 0.765625 2.5625 0.171875 2.46875 0.171875 2.015625 C 0.171875 1.578125 0.640625 1.46875 1.03125 1.46875 L 3.15625 1.46875 L 3.15625 2.65625 L 3.421875 2.65625 L 3.421875 1.46875 L 4.890625 1.46875 Z M 4.890625 1.234375 "/>
</g>
<g id="glyph-10-3">
<path d="M 3.40625 0.3125 L 3.15625 0.3125 L 3.15625 0.421875 C 3.15625 0.625 3.140625 0.859375 2.90625 0.90625 C 2.828125 0.921875 2.75 0.921875 2.65625 0.921875 L 1.09375 0.921875 C 0.859375 0.921875 0.625 0.921875 0.40625 1.046875 C 0.03125 1.265625 -0.078125 1.78125 -0.078125 2.171875 C -0.078125 2.53125 0.046875 2.875 0.328125 3.109375 C 0.390625 3.171875 0.484375 3.234375 0.578125 3.265625 L -0.078125 3.28125 L 0.015625 4.46875 L 0.265625 4.46875 L 0.265625 4.3125 C 0.265625 4.09375 0.296875 3.859375 0.65625 3.859375 L 3.5 3.859375 L 3.40625 2.65625 L 3.15625 2.65625 L 3.15625 2.75 C 3.15625 3.015625 3.140625 3.25 2.75 3.25 L 1.390625 3.25 C 0.765625 3.25 0.15625 2.90625 0.15625 2.234375 C 0.15625 1.953125 0.21875 1.59375 0.625 1.546875 C 0.765625 1.53125 0.90625 1.53125 1.0625 1.53125 L 3.5 1.53125 Z M 3.40625 0.3125 "/>
</g>
<g id="glyph-10-4">
<path d="M 3.40625 0.265625 L 3.15625 0.265625 L 3.15625 0.390625 C 3.15625 0.640625 3.125 0.875 2.75 0.875 L 0.609375 0.875 C 0.28125 0.875 0.265625 0.671875 0.265625 0.265625 L 0.015625 0.265625 L 0.03125 0.75 L 0.03125 1.65625 L 0.015625 2.21875 L 0.265625 2.21875 C 0.265625 2.125 0.265625 2.03125 0.265625 1.9375 C 0.265625 1.6875 0.296875 1.453125 0.59375 1.453125 L 1.921875 1.453125 C 2.484375 1.453125 3.28125 1.765625 3.28125 2.453125 C 3.203125 2.375 3.09375 2.328125 3 2.328125 C 2.765625 2.328125 2.640625 2.515625 2.640625 2.703125 C 2.640625 2.890625 2.796875 3.046875 3 3.046875 C 3.328125 3.046875 3.5 2.71875 3.5 2.421875 C 3.5 1.96875 3.078125 1.5 2.671875 1.40625 L 3.5 1.40625 L 3.46875 1.015625 Z M 3.40625 0.265625 "/>
</g>
<g id="glyph-10-5">
<path d="M 3.40625 0.3125 L 3.15625 0.3125 L 3.15625 0.46875 C 3.15625 0.703125 3.125 0.921875 2.75 0.921875 L 0.609375 0.921875 C 0.28125 0.921875 0.265625 0.71875 0.265625 0.3125 L 0.015625 0.3125 L 0.03125 0.796875 L 0.03125 1.640625 L 0.015625 2.140625 L 0.265625 2.140625 L 0.265625 1.96875 C 0.265625 1.71875 0.296875 1.53125 0.59375 1.53125 L 2.0625 1.53125 C 2.640625 1.53125 3.28125 1.921875 3.28125 2.6875 C 3.28125 3.140625 2.875 3.25 2.40625 3.25 L 0.578125 3.25 C 0.296875 3.25 0.265625 3.046875 0.265625 2.8125 L 0.265625 2.65625 L 0.015625 2.65625 L 0.03125 3.15625 L 0.03125 3.984375 L 0.015625 4.46875 L 0.265625 4.46875 L 0.265625 4.3125 C 0.265625 4.078125 0.296875 3.859375 0.578125 3.859375 L 2.265625 3.859375 C 2.53125 3.859375 2.796875 3.859375 3.046875 3.734375 C 3.390625 3.53125 3.5 3.125 3.5 2.75 C 3.5 2.265625 3.234375 1.65625 2.734375 1.484375 L 3.5 1.46875 L 3.484375 1.1875 Z M 3.40625 0.3125 "/>
</g>
<g id="glyph-10-6">
<path d="M 5.421875 0.3125 L 5.171875 0.3125 C 5.171875 0.421875 5.171875 0.53125 5.171875 0.640625 C 5.171875 0.921875 5.125 1.15625 4.8125 1.15625 L 0.625 1.15625 C 0.3125 1.15625 0.265625 0.890625 0.265625 0.640625 C 0.265625 0.53125 0.265625 0.40625 0.265625 0.3125 L 0.015625 0.3125 L 0.015625 2.71875 L 0.265625 2.71875 C 0.265625 2.625 0.265625 2.515625 0.265625 2.40625 C 0.265625 2.125 0.3125 1.875 0.625 1.875 L 4.8125 1.875 C 5.125 1.875 5.171875 2.15625 5.171875 2.421875 C 5.171875 2.53125 5.171875 2.640625 5.171875 2.71875 L 5.421875 2.71875 Z M 5.421875 0.3125 "/>
</g>
<g id="glyph-10-7">
<path d="M 3.40625 0.3125 L 3.15625 0.3125 L 3.15625 0.46875 C 3.15625 0.703125 3.125 0.921875 2.75 0.921875 L 0.609375 0.921875 C 0.28125 0.921875 0.265625 0.71875 0.265625 0.3125 L 0.015625 0.3125 L 0.03125 0.796875 L 0.03125 1.640625 L 0.015625 2.140625 L 0.265625 2.140625 L 0.265625 1.96875 C 0.265625 1.71875 0.296875 1.53125 0.59375 1.53125 L 2.046875 1.53125 C 2.640625 1.53125 3.28125 1.90625 3.28125 2.6875 C 3.28125 3.140625 2.890625 3.265625 2.40625 3.265625 L 0.578125 3.265625 C 0.296875 3.265625 0.265625 3.046875 0.265625 2.8125 L 0.265625 2.65625 L 0.015625 2.65625 L 0.03125 3.15625 L 0.03125 4 L 0.015625 4.484375 L 0.265625 4.484375 L 0.265625 4.3125 C 0.265625 4.0625 0.296875 3.875 0.59375 3.875 L 2.046875 3.875 C 2.640625 3.875 3.28125 4.25 3.28125 5.03125 C 3.28125 5.484375 2.890625 5.609375 2.40625 5.609375 L 0.578125 5.609375 C 0.296875 5.609375 0.265625 5.390625 0.265625 5.15625 L 0.265625 5 L 0.015625 5 L 0.03125 5.5 L 0.03125 6.328125 L 0.015625 6.8125 L 0.265625 6.8125 L 0.265625 6.6875 C 0.265625 6.4375 0.296875 6.21875 0.578125 6.21875 L 2.28125 6.21875 C 2.53125 6.21875 2.796875 6.203125 3.03125 6.09375 C 3.375 5.890625 3.5 5.484375 3.5 5.109375 C 3.5 4.625 3.265625 4.03125 2.765625 3.84375 L 2.765625 3.828125 C 3.3125 3.765625 3.5 3.203125 3.5 2.734375 C 3.5 2.234375 3.21875 1.65625 2.734375 1.484375 L 3.5 1.46875 L 3.484375 1.1875 Z M 3.40625 0.3125 "/>
</g>
<g id="glyph-10-8">
<path d="M 3.40625 0.265625 L 3.15625 0.265625 L 3.15625 0.390625 C 3.15625 0.640625 3.125 0.875 2.8125 0.875 L -0.9375 0.875 C -1.265625 0.875 -1.265625 0.65625 -1.265625 0.265625 L -1.53125 0.265625 L -1.515625 0.75 L -1.515625 1.59375 L -1.53125 2.09375 L -1.265625 2.09375 L -1.265625 1.90625 C -1.265625 1.671875 -1.234375 1.484375 -0.953125 1.484375 L 0.390625 1.5 C 0.09375 1.671875 -0.078125 2.171875 -0.078125 2.546875 C -0.078125 3.5 0.703125 4.390625 1.71875 4.390625 C 2.59375 4.390625 3.5 3.6875 3.5 2.671875 C 3.5 2.21875 3.34375 1.78125 3.015625 1.453125 L 3.5 1.453125 Z M 1.59375 3.6875 C 0.9375 3.65625 0.15625 3.234375 0.15625 2.453125 C 0.15625 2.0625 0.546875 1.484375 0.890625 1.484375 L 2.171875 1.484375 C 2.265625 1.484375 2.359375 1.46875 2.453125 1.46875 C 2.90625 1.46875 3.25 2.0625 3.25 2.546875 C 3.25 3.328125 2.34375 3.6875 1.71875 3.6875 C 1.671875 3.6875 1.625 3.6875 1.59375 3.6875 Z M 1.59375 3.6875 "/>
</g>
<g id="glyph-10-9">
<path d="M 3.125 1.0625 C 3.25 1.3125 3.3125 1.546875 3.3125 1.828125 C 3.3125 2.375 2.90625 2.734375 2.296875 2.734375 L 2.125 2.734375 C 2.125 1.75 1.796875 0.34375 0.8125 0.34375 C 0.140625 0.34375 -0.078125 1.15625 -0.078125 1.671875 C -0.078125 2.109375 0.125 2.609375 0.578125 2.8125 C 0.234375 2.8125 -0.03125 3.09375 -0.03125 3.421875 C -0.03125 3.828125 0.265625 4.15625 0.6875 4.15625 L 1.15625 4.15625 L 1.15625 3.90625 L 0.765625 3.90625 C 0.5625 3.90625 0.265625 3.875 0.265625 3.625 C 0.265625 3.375 0.5625 3.34375 0.734375 3.34375 L 2.078125 3.34375 C 2.171875 3.34375 2.265625 3.34375 2.359375 3.34375 C 3.15625 3.34375 3.546875 2.53125 3.546875 1.84375 C 3.546875 1.40625 3.40625 0.609375 2.78125 0.609375 C 2.609375 0.609375 2.390625 0.71875 2.390625 0.953125 C 2.390625 1.203125 2.5625 1.359375 2.765625 1.359375 C 2.921875 1.359375 3.078125 1.265625 3.125 1.0625 Z M 1.90625 2.734375 L 1.140625 2.734375 C 0.578125 2.734375 0.15625 2.3125 0.15625 1.765625 C 0.15625 1.40625 0.390625 1.03125 0.765625 1 L 0.796875 1 C 1.671875 1 1.875 2.078125 1.90625 2.734375 Z M 1.90625 2.734375 "/>
</g>
<g id="glyph-10-10">
<path d="M 3.40625 0.359375 L 3.15625 0.359375 L 3.15625 0.484375 C 3.15625 0.734375 3.109375 0.921875 2.765625 0.921875 L 0.609375 0.921875 C 0.28125 0.921875 0.265625 0.71875 0.265625 0.328125 L 0.015625 0.328125 L 0.03125 0.8125 L 0.03125 1.609375 L 0.015625 2.0625 L 0.265625 2.0625 L 0.265625 1.9375 C 0.265625 1.71875 0.28125 1.515625 0.5625 1.515625 L 3.5 1.515625 L 3.484375 1.21875 Z M 5.328125 1.046875 C 5.296875 0.796875 5.09375 0.65625 4.890625 0.65625 C 4.671875 0.65625 4.453125 0.828125 4.453125 1.09375 C 4.453125 1.359375 4.671875 1.546875 4.890625 1.546875 C 5.109375 1.546875 5.328125 1.359375 5.328125 1.109375 C 5.328125 1.09375 5.328125 1.0625 5.328125 1.046875 Z M 5.328125 1.046875 "/>
</g>
<g id="glyph-10-11">
<path d="M 3.15625 2.90625 C 3.09375 2.75 2.96875 2.671875 2.8125 2.671875 C 2.59375 2.671875 2.4375 2.828125 2.4375 3.078125 C 2.4375 3.296875 2.65625 3.40625 2.8125 3.40625 C 3.390625 3.40625 3.515625 2.734375 3.546875 2.25 L 3.546875 2.15625 C 3.546875 1.125 2.734375 0.28125 1.703125 0.28125 C 0.734375 0.28125 -0.078125 1.109375 -0.078125 2.125 C -0.078125 2.671875 0.21875 3.21875 0.765625 3.4375 C 0.8125 3.453125 0.890625 3.515625 0.953125 3.515625 C 1.03125 3.515625 1.0625 3.453125 1.0625 3.390625 C 1.0625 3.234375 0.890625 3.265625 0.75 3.171875 C 0.390625 2.96875 0.171875 2.609375 0.171875 2.203125 C 0.171875 1.390625 0.953125 0.984375 1.75 0.984375 C 2.390625 0.984375 3.296875 1.234375 3.296875 2.15625 C 3.296875 2.375 3.28125 2.6875 3.15625 2.90625 Z M 3.15625 2.90625 "/>
</g>
<g id="glyph-10-12">
<path d="M 3.40625 1.109375 C 3.375 0.875 3.171875 0.734375 2.96875 0.734375 C 2.765625 0.734375 2.546875 0.90625 2.546875 1.15625 C 2.546875 1.421875 2.75 1.609375 2.984375 1.609375 C 3.203125 1.609375 3.421875 1.4375 3.421875 1.1875 C 3.421875 1.15625 3.40625 1.140625 3.40625 1.109375 Z M 0.875 1.109375 C 0.84375 0.875 0.640625 0.734375 0.4375 0.734375 C 0.234375 0.734375 0.015625 0.90625 0.015625 1.15625 C 0.015625 1.421875 0.21875 1.609375 0.453125 1.609375 C 0.671875 1.609375 0.890625 1.4375 0.890625 1.1875 C 0.890625 1.15625 0.875 1.140625 0.875 1.109375 Z M 0.875 1.109375 "/>
</g>
<g id="glyph-10-13">
<path d="M 5.421875 0.375 L 5.171875 0.375 C 5.171875 0.46875 5.171875 0.578125 5.171875 0.671875 C 5.171875 0.9375 5.140625 1.171875 4.828125 1.171875 L 0.625 1.171875 C 0.296875 1.171875 0.265625 0.921875 0.265625 0.65625 C 0.265625 0.5625 0.265625 0.46875 0.265625 0.375 L 0.015625 0.375 L 0.015625 2.640625 L 0.265625 2.640625 C 0.265625 2.546875 0.265625 2.4375 0.265625 2.34375 C 0.265625 2.09375 0.3125 1.84375 0.625 1.84375 L 1.421875 1.84375 L 1.421875 3.1875 C 1.484375 4.015625 2.0625 4.78125 2.921875 4.78125 L 2.953125 4.78125 C 3.734375 4.78125 4.28125 4 4.375 3.296875 C 4.390625 3.171875 4.390625 3.0625 4.390625 2.921875 L 4.390625 1.84375 L 4.796875 1.84375 C 5.140625 1.84375 5.171875 2.09375 5.171875 2.40625 L 5.171875 2.640625 L 5.421875 2.640625 L 5.40625 2.0625 L 5.40625 1 Z M 1.6875 1.84375 L 4.125 1.84375 L 4.125 2.734375 C 4.125 3.0625 4.09375 3.34375 3.8125 3.625 C 3.578125 3.859375 3.234375 3.984375 2.90625 3.984375 C 2.296875 3.984375 1.765625 3.546875 1.6875 2.90625 Z M 1.6875 1.84375 "/>
</g>
<g id="glyph-10-14">
<path d="M 5.40625 0.34375 L 5.140625 0.34375 C 5.140625 0.4375 5.15625 0.546875 5.15625 0.640625 C 5.15625 0.921875 5.109375 1.15625 4.796875 1.15625 L 0.625 1.15625 C 0.296875 1.15625 0.265625 0.890625 0.265625 0.625 C 0.265625 0.53125 0.265625 0.4375 0.265625 0.34375 L 0.015625 0.34375 L 0.015625 2.875 L 0.265625 2.875 C 0.265625 2.765625 0.265625 2.640625 0.265625 2.515625 C 0.265625 2.109375 0.296875 1.875 0.671875 1.875 L 2.578125 1.875 L 2.578125 2.640625 C 2.578125 2.90625 2.5625 3.234375 2.328125 3.375 C 2.15625 3.5 1.921875 3.5 1.71875 3.5 L 1.65625 3.5 L 1.65625 3.75 L 3.765625 3.75 L 3.765625 3.5 L 3.703125 3.5 C 3.25 3.5 2.921875 3.40625 2.859375 2.90625 C 2.84375 2.765625 2.84375 2.609375 2.84375 2.453125 L 2.84375 1.875 L 4.859375 1.875 C 5.125 1.875 5.140625 2.03125 5.140625 2.21875 L 5.140625 3.1875 C 5.140625 3.671875 5.140625 4.28125 4.6875 4.59375 C 4.375 4.8125 3.96875 4.84375 3.609375 4.890625 L 3.609375 5.140625 L 5.40625 4.90625 Z M 5.40625 0.34375 "/>
</g>
<g id="glyph-10-15">
<path d="M 5.421875 0.34375 L 5.171875 0.34375 C 5.171875 0.4375 5.171875 0.546875 5.171875 0.640625 C 5.171875 0.90625 5.140625 1.15625 4.8125 1.15625 L 0.75 1.15625 C 0.703125 1.15625 0.640625 1.15625 0.59375 1.15625 C 0.296875 1.15625 0.265625 0.890625 0.265625 0.640625 C 0.265625 0.53125 0.265625 0.421875 0.265625 0.34375 L 0.015625 0.34375 L 0.015625 2.6875 L 0.265625 2.6875 C 0.265625 2.59375 0.265625 2.46875 0.265625 2.375 C 0.265625 2.109375 0.3125 1.875 0.625 1.875 L 2.703125 1.875 L 2.703125 4.421875 L 0.625 4.421875 C 0.296875 4.421875 0.265625 4.15625 0.265625 3.84375 L 0.265625 3.625 L 0.015625 3.625 L 0.015625 5.96875 L 0.265625 5.96875 C 0.265625 5.875 0.265625 5.765625 0.265625 5.671875 C 0.265625 5.40625 0.296875 5.15625 0.59375 5.15625 C 0.640625 5.15625 0.703125 5.15625 0.75 5.15625 L 4.8125 5.15625 C 5.140625 5.15625 5.171875 5.421875 5.171875 5.6875 C 5.171875 5.78125 5.171875 5.875 5.171875 5.96875 L 5.421875 5.96875 L 5.421875 3.625 L 5.171875 3.625 C 5.171875 3.71875 5.171875 3.828125 5.171875 3.921875 C 5.171875 4.203125 5.125 4.421875 4.8125 4.421875 L 2.953125 4.421875 L 2.953125 1.875 L 4.8125 1.875 C 5.140625 1.875 5.171875 2.15625 5.171875 2.453125 L 5.171875 2.6875 L 5.421875 2.6875 Z M 5.421875 0.34375 "/>
</g>
<g id="glyph-10-16">
<path d="M 5.421875 0.15625 L 5.171875 0.15625 L 5.171875 0.3125 C 5.171875 0.484375 5.15625 0.671875 5.046875 0.765625 C 4.9375 0.859375 4.796875 0.890625 4.671875 0.9375 C 3.171875 1.46875 1.65625 1.96875 0.15625 2.5 C 0.03125 2.546875 -0.15625 2.5625 -0.15625 2.734375 L -0.15625 2.75 C -0.140625 2.90625 0.0625 2.9375 0.171875 2.984375 C 1.28125 3.359375 2.375 3.75 3.484375 4.125 C 3.671875 4.1875 3.875 4.25 4.0625 4.328125 C 3.859375 4.40625 3.65625 4.46875 3.453125 4.546875 L 2.328125 4.921875 C 1.609375 5.171875 0.90625 5.453125 0.171875 5.671875 C 0.0625 5.703125 -0.140625 5.734375 -0.15625 5.890625 L -0.15625 5.953125 C -0.140625 6.09375 0.03125 6.109375 0.140625 6.15625 C 1.078125 6.46875 2 6.796875 2.921875 7.109375 C 3.34375 7.265625 3.78125 7.390625 4.21875 7.5625 C 4.640625 7.703125 5.171875 7.765625 5.171875 8.5 L 5.421875 8.5 L 5.40625 8.109375 L 5.40625 7.34375 L 5.421875 6.796875 L 5.171875 6.796875 C 5.171875 7.0625 5.078125 7.4375 4.765625 7.46875 L 4.75 7.46875 C 4.625 7.46875 4.5 7.390625 4.390625 7.359375 C 3.234375 6.9375 2.078125 6.578125 0.921875 6.15625 C 1.21875 6.046875 1.53125 5.9375 1.8125 5.84375 C 2.765625 5.515625 3.703125 5.1875 4.65625 4.875 C 4.734375 4.84375 4.828125 4.78125 4.921875 4.78125 C 5.171875 4.78125 5.171875 5.203125 5.171875 5.421875 L 5.421875 5.421875 L 5.421875 3.34375 L 5.171875 3.34375 L 5.171875 3.515625 C 5.171875 3.953125 4.984375 4.015625 4.6875 4.109375 L 4.546875 4.15625 C 4.515625 4.171875 4.484375 4.1875 4.4375 4.1875 C 4.328125 4.171875 4.203125 4.109375 4.078125 4.0625 C 3.28125 3.8125 2.46875 3.515625 1.6875 3.234375 C 1.421875 3.15625 1.171875 3.078125 0.921875 2.96875 C 1.25 2.828125 1.609375 2.75 1.9375 2.625 C 2.90625 2.28125 3.875 1.984375 4.828125 1.625 C 4.859375 1.625 4.890625 1.609375 4.921875 1.609375 C 5.171875 1.609375 5.171875 2.03125 5.171875 2.25 L 5.421875 2.25 Z M 5.421875 0.15625 "/>
</g>
<g id="glyph-10-17">
<path d="M 5.421875 0.328125 L 5.171875 0.328125 L 5.171875 0.421875 C 5.171875 0.6875 5.15625 0.921875 4.75 0.921875 L 0.78125 0.921875 C 0.71875 0.921875 0.671875 0.9375 0.609375 0.9375 C 0.28125 0.9375 0.265625 0.6875 0.265625 0.40625 L 0.265625 0.328125 L 0.015625 0.328125 L 0.03125 0.796875 L 0.03125 1.625 L 0.015625 2.125 L 0.265625 2.125 L 0.265625 1.9375 C 0.265625 1.71875 0.296875 1.515625 0.578125 1.515625 L 5.515625 1.515625 Z M 5.421875 0.328125 "/>
</g>
<g id="glyph-10-18">
<path d="M 5.421875 0.3125 L 5.171875 0.3125 L 5.171875 0.453125 C 5.171875 0.71875 5.140625 0.921875 4.765625 0.921875 L 0.78125 0.921875 C 0.734375 0.921875 0.671875 0.921875 0.609375 0.921875 C 0.28125 0.921875 0.265625 0.6875 0.265625 0.359375 L 0.265625 0.3125 L 0.015625 0.3125 L 0.03125 0.796875 L 0.03125 1.640625 L 0.015625 2.140625 L 0.265625 2.140625 L 0.265625 1.96875 C 0.265625 1.71875 0.296875 1.53125 0.59375 1.53125 L 2.0625 1.53125 C 2.640625 1.53125 3.28125 1.921875 3.28125 2.6875 C 3.28125 3.140625 2.875 3.25 2.40625 3.25 L 0.578125 3.25 C 0.296875 3.25 0.265625 3.046875 0.265625 2.8125 L 0.265625 2.65625 L 0.015625 2.65625 L 0.03125 3.15625 L 0.03125 3.984375 L 0.015625 4.46875 L 0.265625 4.46875 L 0.265625 4.3125 C 0.265625 4.09375 0.296875 3.859375 0.578125 3.859375 L 2.296875 3.859375 C 2.546875 3.859375 2.78125 3.859375 3.015625 3.75 C 3.375 3.5625 3.5 3.140625 3.5 2.75 C 3.5 2.28125 3.265625 1.71875 2.796875 1.515625 L 5.515625 1.515625 Z M 5.421875 0.3125 "/>
</g>
<g id="glyph-11-0">
<path d="M 4.09375 5.6875 C 4.140625 5.78125 4.1875 5.84375 4.296875 5.84375 C 4.390625 5.84375 4.484375 5.765625 4.484375 5.671875 C 4.484375 5.640625 4.484375 5.625 4.421875 5.53125 L 2.1875 0.859375 C 2.140625 0.765625 2.09375 0.703125 1.984375 0.703125 C 1.875 0.703125 1.828125 0.765625 1.78125 0.859375 L -0.453125 5.53125 C -0.515625 5.625 -0.515625 5.640625 -0.515625 5.671875 C -0.515625 5.765625 -0.421875 5.84375 -0.328125 5.84375 C -0.21875 5.84375 -0.171875 5.78125 -0.125 5.6875 L 1.984375 1.296875 Z M 4.09375 5.6875 "/>
</g>
<g id="glyph-11-1">
<path d="M 4.859375 3.078125 C 5.140625 3.15625 5.15625 3.15625 5.15625 3.484375 L 5.15625 4.125 C 5.15625 4.78125 5 5.390625 4.34375 5.390625 C 4 5.390625 3.4375 5.203125 3.1875 4.84375 C 2.90625 4.453125 2.828125 4.015625 2.828125 3.546875 L 2.828125 2.578125 Z M 2.703125 4.421875 C 2.9375 5.40625 3.546875 6.171875 4.21875 6.171875 C 4.90625 6.171875 5.421875 5.390625 5.421875 4.28125 L 5.421875 1.9375 C 5.421875 1.796875 5.421875 1.703125 5.265625 1.703125 C 5.15625 1.703125 5.15625 1.796875 5.15625 1.921875 C 5.15625 2.1875 5.15625 2.421875 5.03125 2.421875 C 5 2.421875 5 2.40625 4.890625 2.390625 L 0.625 1.328125 C 0.328125 1.25 0.265625 1.234375 0.265625 0.65625 C 0.265625 0.5 0.265625 0.40625 0.109375 0.40625 C 0.078125 0.40625 0 0.421875 0 0.53125 C 0 0.6875 0.015625 0.859375 0.03125 1.03125 L 0.03125 1.515625 C 0.03125 2.25 0 2.484375 0 2.53125 C 0 2.578125 0 2.6875 0.15625 2.6875 C 0.265625 2.6875 0.265625 2.59375 0.265625 2.453125 C 0.265625 2.421875 0.265625 2.28125 0.28125 2.15625 C 0.296875 1.984375 0.3125 1.96875 0.390625 1.96875 C 0.421875 1.96875 0.46875 1.984375 0.515625 2 L 2.609375 2.515625 L 2.609375 3.546875 C 2.609375 4.25 2.21875 4.484375 1.890625 4.484375 C 1.78125 4.484375 1.5625 4.421875 1.390625 4.375 C 1.171875 4.3125 0.84375 4.234375 0.703125 4.234375 C 0.09375 4.234375 -0.171875 4.765625 -0.171875 5.34375 C -0.171875 6.046875 0.609375 6.359375 0.765625 6.359375 C 0.796875 6.359375 0.875 6.34375 0.875 6.234375 C 0.875 6.15625 0.796875 6.125 0.765625 6.125 C 0.21875 5.9375 0.0625 5.609375 0.0625 5.375 C 0.0625 5.078125 0.28125 5.046875 0.546875 5.046875 C 0.796875 5.046875 1.15625 5.09375 1.40625 5.125 C 1.65625 5.15625 1.703125 5.15625 1.78125 5.15625 C 2.25 5.15625 2.53125 4.84375 2.703125 4.421875 Z M 2.703125 4.421875 "/>
</g>
<g id="glyph-11-2">
<path d="M 5.375 6.328125 C 5.40625 6.328125 5.453125 6.34375 5.5 6.34375 C 5.546875 6.34375 5.59375 6.296875 5.59375 6.25 C 5.59375 6.1875 5.5625 6.171875 5.5 6.109375 L 4.875 5.546875 C 5.390625 5.1875 5.59375 4.671875 5.59375 4.125 C 5.59375 2.265625 3.875 0.421875 2.0625 0.421875 C 0.734375 0.421875 -0.171875 1.40625 -0.171875 2.75 C -0.171875 3.609375 0.140625 4.25 0.484375 4.546875 C 0.234375 4.640625 0.015625 4.828125 0.015625 4.90625 C 0.015625 4.9375 0.03125 4.984375 0.0625 5 C 0.1875 5.046875 1 5.234375 1.21875 5.28125 C 1.546875 5.359375 1.765625 5.40625 1.828125 5.46875 C 1.921875 5.53125 1.921875 5.6875 1.921875 5.921875 C 1.921875 5.96875 1.921875 6.078125 2.078125 6.078125 C 2.15625 6.078125 2.1875 6.03125 2.1875 5.96875 C 2.1875 5.90625 2.171875 5.8125 2.171875 5.046875 C 2.171875 4.84375 2.171875 4.578125 2.171875 4.453125 C 2.1875 4.328125 2.1875 4.015625 2.1875 3.890625 C 2.1875 3.84375 2.1875 3.734375 2.046875 3.734375 C 1.921875 3.734375 1.921875 3.8125 1.921875 4.03125 C 1.921875 4.1875 1.921875 4.5 1.859375 4.6875 C 1.84375 4.6875 1.796875 4.703125 1.765625 4.703125 C 1.71875 4.703125 1.546875 4.65625 1.4375 4.625 C 1.234375 4.578125 0.90625 4.5 0.828125 4.453125 C 0.296875 4.203125 0.09375 3.4375 0.09375 2.890625 C 0.09375 2.109375 0.515625 1.1875 1.796875 1.1875 C 2.453125 1.1875 3.609375 1.453125 4.359375 2.15625 C 5.1875 2.90625 5.328125 3.765625 5.328125 4.1875 C 5.328125 5.15625 4.5625 5.59375 3.765625 5.59375 C 3.65625 5.59375 3.515625 5.5625 3.40625 5.5625 C 3.3125 5.5625 3.3125 5.671875 3.3125 5.703125 C 3.3125 5.796875 3.34375 5.8125 3.484375 5.84375 Z M 5.375 6.328125 "/>
</g>
<g id="glyph-11-3">
<path d="M 5.625 3.6875 C 5.734375 3.734375 5.75 3.734375 5.765625 3.734375 C 5.875 3.734375 5.953125 3.65625 5.953125 3.5625 C 5.953125 3.421875 5.859375 3.390625 5.78125 3.359375 L -1.65625 0.515625 C -1.765625 0.46875 -1.78125 0.46875 -1.796875 0.46875 C -1.90625 0.46875 -1.984375 0.546875 -1.984375 0.65625 C -1.984375 0.78125 -1.890625 0.8125 -1.8125 0.84375 Z M 5.625 3.6875 "/>
</g>
<g id="glyph-12-0">
<path d="M 4.5625 -4.0625 L 4.375 -3.875 C 4.453125 -3.796875 4.53125 -3.71875 4.625 -3.625 C 4.828125 -3.421875 4.984375 -3.203125 4.734375 -2.953125 L 1.359375 0.421875 C 1.09375 0.6875 0.875 0.46875 0.640625 0.234375 L 0.453125 0.046875 L 0.265625 0.234375 L 2.125 2.09375 L 2.3125 1.90625 L 2.09375 1.6875 C 1.8125 1.40625 1.6875 1.21875 1.953125 0.953125 L 3.4375 -0.53125 L 4.59375 0.625 C 5.234375 1.203125 6.421875 1.671875 7.1875 0.90625 C 7.90625 0.1875 7.578125 -0.984375 6.921875 -1.703125 Z M 3.625 -0.71875 L 5.328125 -2.421875 C 5.5 -2.59375 5.625 -2.625 5.796875 -2.453125 L 6.296875 -1.953125 C 6.84375 -1.40625 7.5 -0.6875 6.546875 0.265625 C 6.328125 0.484375 6.03125 0.71875 5.71875 0.71875 C 5.203125 0.796875 4.796875 0.453125 4.453125 0.109375 Z M 3.625 -0.71875 "/>
</g>
<g id="glyph-12-1">
<path d="M 4.546875 -4.046875 L 4.34375 -3.84375 L 4.578125 -3.609375 C 4.78125 -3.40625 4.96875 -3.1875 4.71875 -2.9375 L 1.359375 0.421875 C 1.125 0.65625 0.875 0.46875 0.671875 0.265625 C 0.59375 0.1875 0.515625 0.109375 0.453125 0.046875 L 0.265625 0.234375 L 2.265625 2.234375 L 2.453125 2.046875 C 2.375 1.96875 2.265625 1.859375 2.171875 1.765625 C 1.84375 1.4375 1.65625 1.25 1.96875 0.9375 L 3.515625 -0.609375 L 4.09375 -0.03125 C 4.3125 0.1875 4.515625 0.421875 4.46875 0.71875 C 4.4375 0.96875 4.25 1.15625 4.078125 1.328125 L 4.015625 1.390625 L 4.1875 1.5625 L 5.875 -0.125 L 5.703125 -0.296875 L 5.640625 -0.234375 C 5.3125 0.09375 4.984375 0.328125 4.515625 -0.015625 C 4.375 -0.125 4.265625 -0.234375 4.140625 -0.359375 L 3.703125 -0.796875 L 5.328125 -2.421875 C 5.546875 -2.640625 5.671875 -2.515625 5.8125 -2.375 L 6.5625 -1.625 C 6.90625 -1.28125 7.3125 -0.875 7.296875 -0.390625 C 7.296875 0.109375 6.9375 0.53125 6.65625 0.90625 L 6.828125 1.078125 L 8.078125 -0.515625 Z M 4.546875 -4.046875 "/>
</g>
<g id="glyph-12-2">
<path d="M 1.625 -1.5 L 1.234375 -1.109375 L 2.96875 0.625 L 3.359375 0.234375 Z M 1.625 -1.5 "/>
</g>
<g id="glyph-12-3">
<path d="M 4.4375 -4.1875 L 4.25 -4 L 4.40625 -3.84375 C 4.53125 -3.71875 4.671875 -3.546875 4.6875 -3.375 C 4.671875 -3.203125 4.578125 -3.046875 4.53125 -2.90625 C 3.78125 -1.25 3.078125 0.421875 2.34375 2.09375 C 2.265625 2.234375 2.15625 2.40625 2.3125 2.5625 C 2.4375 2.6875 2.609375 2.578125 2.75 2.5 L 3.890625 2.015625 C 5.140625 1.484375 6.375 0.90625 7.640625 0.390625 C 8.171875 0.171875 8.515625 0.265625 8.859375 0.609375 L 9.046875 0.421875 L 8.65625 0.0625 L 7.703125 -0.890625 L 7.53125 -0.71875 C 7.671875 -0.578125 7.75 -0.40625 7.78125 -0.1875 L 7.75 -0.09375 C 7.734375 -0.046875 7.6875 0 7.65625 0.03125 C 7.5 0.1875 7.125 0.3125 6.859375 0.421875 C 5.796875 0.890625 4.71875 1.375 3.65625 1.8125 C 3.515625 1.890625 3.375 1.9375 3.25 2 L 3.234375 1.984375 C 3.28125 1.875 3.328125 1.765625 3.390625 1.640625 C 3.953125 0.265625 4.640625 -1.109375 5.1875 -2.5 C 5.203125 -2.546875 5.234375 -2.578125 5.265625 -2.609375 L 5.28125 -2.625 C 5.484375 -2.734375 5.734375 -2.515625 5.890625 -2.359375 L 5.953125 -2.296875 L 6.140625 -2.484375 Z M 4.4375 -4.1875 "/>
</g>
<g id="glyph-12-4">
<path d="M 0.40625 0 L 0.21875 0.1875 L 1.578125 1.546875 L 1.765625 1.359375 C 1.578125 1.171875 1.390625 0.828125 1.625 0.59375 C 1.703125 0.515625 1.828125 0.453125 1.9375 0.40625 C 2.328125 0.234375 2.828125 -0.078125 2.9375 0.03125 L 4.453125 1.546875 C 4.5625 1.65625 4.28125 2.09375 4.15625 2.3125 C 4.0625 2.53125 3.9375 2.90625 3.8125 3.03125 C 3.625 3.21875 3.28125 2.875 3.109375 2.703125 L 2.921875 2.890625 L 4.65625 4.625 L 4.84375 4.4375 L 4.671875 4.265625 C 4.515625 4.109375 4.375 3.96875 4.375 3.8125 C 4.390625 3.640625 4.484375 3.484375 4.53125 3.34375 C 5.296875 1.671875 6.125 0.03125 6.890625 -1.640625 L 6.96875 -1.8125 C 7.015625 -1.921875 7.03125 -2 6.9375 -2.09375 C 6.796875 -2.234375 6.640625 -2.109375 6.515625 -2.046875 C 5.03125 -1.34375 3.5625 -0.65625 2.109375 0.015625 L 1.6875 0.21875 C 1.140625 0.484375 0.765625 0.359375 0.40625 0 Z M 3.125 -0.15625 L 5.96875 -1.46875 L 4.625 1.34375 Z M 3.125 -0.15625 "/>
</g>
<g id="glyph-12-5">
<path d="M 7.71875 -0.09375 C 7.84375 -0.5625 7.546875 -1.328125 7.15625 -1.75 L 7.09375 -1.8125 C 5.828125 -3.078125 3.765625 -3.046875 2.53125 -1.8125 L 2.421875 -1.703125 C 1.265625 -0.390625 1.296875 1.546875 2.484375 2.734375 C 3.359375 3.609375 4.859375 3.765625 5.796875 2.828125 L 5.84375 2.78125 C 5.875 2.75 5.859375 2.671875 5.8125 2.625 C 5.765625 2.578125 5.6875 2.59375 5.625 2.65625 L 5.59375 2.6875 C 4.890625 3.265625 3.671875 3.546875 2.75 2.625 C 2.265625 2.140625 2.03125 1.375 2.125 0.6875 C 2.203125 -0.046875 2.71875 -0.71875 3.203125 -1.203125 C 3.8125 -1.8125 4.609375 -2.296875 5.5 -2.21875 C 6.03125 -2.1875 6.546875 -1.953125 6.921875 -1.578125 C 7.734375 -0.765625 7.53125 0.4375 6.9375 1.25 C 6.875 1.34375 6.734375 1.453125 6.84375 1.5625 C 6.9375 1.65625 7.015625 1.609375 7.0625 1.5625 L 8.46875 0.15625 C 8.515625 0.109375 8.5625 0.0625 8.625 0 C 8.6875 -0.0625 8.765625 -0.140625 8.703125 -0.203125 C 8.578125 -0.328125 8.046875 -0.109375 7.71875 -0.09375 Z M 7.71875 -0.09375 "/>
</g>
<g id="glyph-12-6">
<path d="M 3.5625 -1.875 C 3.390625 -2.015625 3.09375 -2 2.921875 -1.828125 C 2.75 -1.65625 2.71875 -1.34375 2.921875 -1.140625 C 3.109375 -0.953125 3.421875 -0.953125 3.609375 -1.140625 C 3.78125 -1.3125 3.828125 -1.609375 3.625 -1.8125 C 3.609375 -1.828125 3.578125 -1.859375 3.5625 -1.875 Z M 1.53125 0.15625 C 1.34375 0.03125 1.0625 0.03125 0.890625 0.203125 C 0.734375 0.359375 0.703125 0.671875 0.90625 0.875 C 1.046875 1.015625 1.359375 1.109375 1.578125 0.890625 C 1.75 0.71875 1.796875 0.421875 1.578125 0.203125 C 1.5625 0.1875 1.546875 0.171875 1.53125 0.15625 Z M 1.53125 0.15625 "/>
</g>
<g id="glyph-12-7">
<path d="M 4.5625 -4.0625 L 4.375 -3.875 C 4.453125 -3.796875 4.546875 -3.703125 4.625 -3.625 C 4.84375 -3.40625 5 -3.1875 4.75 -2.9375 L 1.375 0.4375 C 1.109375 0.703125 0.875 0.46875 0.640625 0.234375 L 0.453125 0.046875 L 0.265625 0.234375 L 2.09375 2.0625 L 2.28125 1.875 C 2.1875 1.78125 2.109375 1.703125 2.03125 1.625 C 1.8125 1.40625 1.671875 1.203125 1.9375 0.9375 L 2.5625 0.3125 L 3.578125 1.328125 C 4.296875 1.921875 5.328125 2.015625 5.984375 1.359375 L 6.015625 1.328125 C 6.75 0.59375 6.40625 -0.5625 5.78125 -1.1875 L 4.921875 -2.046875 L 5.265625 -2.390625 C 5.53125 -2.65625 5.765625 -2.484375 6.03125 -2.21875 L 6.203125 -2.046875 L 6.390625 -2.234375 Z M 2.765625 0.109375 L 4.71875 -1.84375 L 5.40625 -1.15625 C 5.640625 -0.921875 5.828125 -0.703125 5.8125 -0.28125 C 5.828125 0.109375 5.640625 0.484375 5.375 0.75 C 4.921875 1.203125 4.15625 1.375 3.578125 0.921875 Z M 2.765625 0.109375 "/>
</g>
<g id="glyph-13-0">
<path d="M 7.546875 1.171875 C 7.640625 1.203125 7.765625 1.234375 7.84375 1.15625 C 7.90625 1.09375 7.921875 0.953125 7.84375 0.875 C 7.828125 0.859375 7.796875 0.828125 7.703125 0.796875 L 2.390625 -1.046875 C 2.3125 -1.09375 2.21875 -1.125 2.125 -1.03125 C 2.03125 -0.9375 2.046875 -0.859375 2.109375 -0.765625 L 3.953125 4.515625 C 3.984375 4.640625 4.015625 4.671875 4.03125 4.6875 C 4.125 4.78125 4.265625 4.734375 4.3125 4.6875 C 4.390625 4.609375 4.375 4.53125 4.3125 4.4375 L 2.578125 -0.578125 Z M 7.546875 1.171875 "/>
</g>
<g id="glyph-14-0">
<path d="M -1.984375 2.640625 C -1.984375 2.703125 -1.984375 2.796875 -1.890625 2.796875 C -1.859375 2.796875 -1.84375 2.796875 -1.75 2.6875 C -0.71875 1.609375 0.75 1.328125 1.984375 1.328125 C 4.265625 1.328125 5.34375 2.28125 5.703125 2.6875 C 5.8125 2.796875 5.8125 2.796875 5.859375 2.796875 C 5.890625 2.796875 5.953125 2.765625 5.953125 2.6875 C 5.953125 2.5625 5.546875 2.171875 5.484375 2.109375 C 4.359375 1.046875 2.9375 0.8125 1.984375 0.8125 C 0.203125 0.8125 -1.21875 1.5625 -1.984375 2.640625 Z M -1.984375 2.640625 "/>
</g>
<g id="glyph-14-1">
<path d="M 1.984375 2.453125 C 2.734375 2.453125 3.640625 2.328125 4.578125 1.828125 C 5.3125 1.4375 5.953125 0.71875 5.953125 0.578125 C 5.953125 0.5 5.890625 0.46875 5.859375 0.46875 C 5.828125 0.46875 5.8125 0.46875 5.71875 0.578125 C 4.65625 1.6875 3.203125 1.9375 1.984375 1.9375 C -0.296875 1.9375 -1.375 0.984375 -1.734375 0.59375 C -1.84375 0.484375 -1.84375 0.46875 -1.890625 0.46875 C -1.921875 0.46875 -1.984375 0.5 -1.984375 0.578125 C -1.984375 0.703125 -1.578125 1.109375 -1.515625 1.171875 C -0.390625 2.234375 1.03125 2.453125 1.984375 2.453125 Z M 1.984375 2.453125 "/>
</g>
<g id="glyph-15-0">
<path d="M 3.78125 2.140625 C 3.953125 2.140625 3.953125 2.109375 3.953125 1.9375 C 3.578125 1.546875 3.578125 0.9375 3.578125 0.71875 L 3.34375 0.71875 C 3.34375 0.875 3.34375 1.265625 3.515625 1.625 L 0.5 1.625 C 0.3125 1.625 0.234375 1.625 0.234375 1.015625 L 0.234375 0.75 L 0 0.75 C 0.03125 1.078125 0.03125 1.546875 0.03125 1.875 C 0.03125 2.21875 0.03125 2.671875 0 3 L 0.234375 3 L 0.234375 2.75 C 0.234375 2.140625 0.3125 2.140625 0.5 2.140625 Z M 3.78125 2.140625 "/>
</g>
<g id="glyph-16-0">
<path d="M 4.171875 3.203125 C 4.28125 3.25 4.28125 3.25 4.3125 3.25 C 4.390625 3.25 4.46875 3.171875 4.46875 3.09375 C 4.46875 2.984375 4.390625 2.953125 4.3125 2.921875 L -1.203125 0.59375 C -1.296875 0.546875 -1.3125 0.546875 -1.328125 0.546875 C -1.421875 0.546875 -1.484375 0.625 -1.484375 0.703125 C -1.484375 0.8125 -1.421875 0.84375 -1.328125 0.875 Z M 4.171875 3.203125 "/>
</g>
<g id="glyph-16-1">
<path d="M 0.84375 2.875 C 1.4375 2.8125 2.625 2.5 2.625 1.59375 C 2.625 0.765625 1.8125 0.28125 1.5625 0.28125 C 1.484375 0.28125 1.484375 0.359375 1.484375 0.375 C 1.484375 0.46875 1.5 0.46875 1.578125 0.5 C 1.953125 0.625 2.125 1.078125 2.125 1.5 C 2.125 2.453125 1.28125 2.671875 0.53125 2.671875 C 0.390625 2.671875 0.25 2.65625 0.140625 2.625 C -0.359375 2.46875 -0.96875 2.3125 -1.125 2.3125 C -1.171875 2.3125 -1.28125 2.328125 -1.28125 2.421875 C -1.28125 2.546875 -1.09375 2.59375 -0.953125 2.640625 C -0.921875 2.65625 -0.421875 2.796875 0.09375 2.859375 C 0.328125 2.890625 1.390625 3.296875 2.296875 3.796875 C 2.453125 3.875 2.46875 3.875 2.484375 3.875 C 2.546875 3.875 2.5625 3.828125 2.5625 3.78125 C 2.5625 3.75 2.5625 3.703125 2.53125 3.6875 C 2.515625 3.671875 1.6875 3.203125 0.84375 2.875 Z M 0.84375 2.875 "/>
</g>
<g id="glyph-17-0">
<path d="M 0.3125 -5.421875 L 0.3125 -5.171875 C 0.421875 -5.171875 0.53125 -5.171875 0.640625 -5.171875 C 0.921875 -5.171875 1.15625 -5.125 1.15625 -4.8125 L 1.15625 -0.625 C 1.15625 -0.3125 0.890625 -0.265625 0.640625 -0.265625 C 0.53125 -0.265625 0.40625 -0.265625 0.3125 -0.265625 L 0.3125 -0.015625 L 2.71875 -0.015625 L 2.71875 -0.265625 C 2.625 -0.265625 2.515625 -0.265625 2.40625 -0.265625 C 2.125 -0.265625 1.875 -0.3125 1.875 -0.625 L 1.875 -4.8125 C 1.875 -5.125 2.15625 -5.171875 2.421875 -5.171875 C 2.53125 -5.171875 2.640625 -5.171875 2.71875 -5.171875 L 2.71875 -5.421875 Z M 0.3125 -5.421875 "/>
</g>
<g id="glyph-17-1">
<path d="M 0.3125 -3.40625 L 0.3125 -3.15625 L 0.46875 -3.15625 C 0.703125 -3.15625 0.921875 -3.125 0.921875 -2.75 L 0.921875 -0.609375 C 0.921875 -0.28125 0.71875 -0.265625 0.3125 -0.265625 L 0.3125 -0.015625 L 0.796875 -0.03125 L 1.640625 -0.03125 L 2.140625 -0.015625 L 2.140625 -0.265625 L 1.96875 -0.265625 C 1.71875 -0.265625 1.53125 -0.296875 1.53125 -0.59375 L 1.53125 -2.0625 C 1.53125 -2.640625 1.921875 -3.28125 2.6875 -3.28125 C 3.140625 -3.28125 3.25 -2.875 3.25 -2.40625 L 3.25 -0.578125 C 3.25 -0.296875 3.046875 -0.265625 2.8125 -0.265625 L 2.65625 -0.265625 L 2.65625 -0.015625 L 3.15625 -0.03125 L 3.984375 -0.03125 L 4.46875 -0.015625 L 4.46875 -0.265625 L 4.3125 -0.265625 C 4.078125 -0.265625 3.859375 -0.296875 3.859375 -0.578125 L 3.859375 -2.265625 C 3.859375 -2.53125 3.859375 -2.796875 3.734375 -3.046875 C 3.53125 -3.390625 3.125 -3.5 2.75 -3.5 C 2.265625 -3.5 1.65625 -3.234375 1.484375 -2.734375 L 1.46875 -3.5 L 1.1875 -3.484375 Z M 0.3125 -3.40625 "/>
</g>
<g id="glyph-17-2">
<path d="M 0.875 -3.421875 L 0.21875 -3.421875 L 0.21875 -3.15625 L 0.875 -3.15625 L 0.875 -0.5625 C 0.875 -0.28125 0.640625 -0.265625 0.375 -0.265625 L 0.265625 -0.265625 L 0.265625 -0.015625 L 0.75 -0.03125 L 1.578125 -0.03125 L 2.0625 -0.015625 L 2.0625 -0.265625 L 1.921875 -0.265625 C 1.671875 -0.265625 1.453125 -0.296875 1.453125 -0.5625 L 1.453125 -3.15625 L 2.84375 -3.15625 C 3.109375 -3.15625 3.21875 -3.046875 3.21875 -2.78125 L 3.21875 -0.609375 C 3.21875 -0.28125 3.015625 -0.265625 2.609375 -0.265625 L 2.609375 -0.015625 L 3.09375 -0.03125 L 3.90625 -0.03125 L 4.40625 -0.015625 L 4.40625 -0.265625 L 4.234375 -0.265625 C 4.015625 -0.265625 3.796875 -0.296875 3.796875 -0.59375 L 3.796875 -3.515625 L 2.6875 -3.4375 L 2.5625 -3.421875 L 1.4375 -3.421875 L 1.4375 -4.21875 C 1.4375 -4.984375 2.03125 -5.375 2.671875 -5.375 C 2.921875 -5.375 3.109375 -5.296875 3.34375 -5.171875 C 3.1875 -5.109375 3.03125 -5.03125 3.03125 -4.78125 C 3.03125 -4.578125 3.171875 -4.390625 3.390625 -4.390625 L 3.421875 -4.390625 C 3.671875 -4.4375 3.78125 -4.578125 3.78125 -4.796875 C 3.78125 -5.375 3.15625 -5.59375 2.6875 -5.59375 C 2.03125 -5.59375 1.265625 -5.34375 0.96875 -4.765625 C 0.875 -4.578125 0.875 -4.40625 0.875 -4.21875 Z M 0.875 -3.421875 "/>
</g>
<g id="glyph-17-3">
<path d="M 0.359375 -3.40625 L 0.359375 -3.15625 L 0.484375 -3.15625 C 0.734375 -3.15625 0.921875 -3.109375 0.921875 -2.765625 L 0.921875 -0.609375 C 0.921875 -0.28125 0.71875 -0.265625 0.328125 -0.265625 L 0.328125 -0.015625 L 0.8125 -0.03125 L 1.609375 -0.03125 L 2.0625 -0.015625 L 2.0625 -0.265625 L 1.9375 -0.265625 C 1.71875 -0.265625 1.515625 -0.28125 1.515625 -0.5625 L 1.515625 -3.5 L 1.21875 -3.484375 Z M 1.046875 -5.328125 C 0.796875 -5.296875 0.65625 -5.09375 0.65625 -4.890625 C 0.65625 -4.671875 0.828125 -4.453125 1.09375 -4.453125 C 1.359375 -4.453125 1.546875 -4.671875 1.546875 -4.890625 C 1.546875 -5.109375 1.359375 -5.328125 1.109375 -5.328125 C 1.09375 -5.328125 1.0625 -5.328125 1.046875 -5.328125 Z M 1.046875 -5.328125 "/>
</g>
<g id="glyph-17-4">
<path d="M 1.234375 -4.890625 C 1.234375 -4.328125 0.953125 -3.375 0.15625 -3.375 L 0.15625 -3.15625 L 0.859375 -3.15625 L 0.859375 -1.109375 C 0.859375 -0.859375 0.875 -0.609375 1.015625 -0.375 C 1.203125 -0.0625 1.609375 0.078125 1.96875 0.078125 C 2.640625 0.078125 2.796875 -0.640625 2.796875 -1.15625 L 2.796875 -1.4375 L 2.5625 -1.4375 C 2.5625 -1.328125 2.5625 -1.21875 2.5625 -1.109375 C 2.5625 -0.765625 2.46875 -0.171875 2.015625 -0.171875 C 1.578125 -0.171875 1.46875 -0.640625 1.46875 -1.03125 L 1.46875 -3.15625 L 2.65625 -3.15625 L 2.65625 -3.421875 L 1.46875 -3.421875 L 1.46875 -4.890625 Z M 1.234375 -4.890625 "/>
</g>
<g id="glyph-17-5">
<path d="M 0.9375 -1.8125 L 3.359375 -1.8125 C 3.453125 -1.8125 3.515625 -1.875 3.515625 -1.96875 C 3.515625 -2.359375 3.390625 -2.828125 3.109375 -3.125 C 2.8125 -3.40625 2.421875 -3.546875 2.015625 -3.546875 C 1.09375 -3.546875 0.234375 -2.828125 0.234375 -1.75 C 0.234375 -0.84375 0.953125 0.078125 2.09375 0.078125 C 2.6875 0.078125 3.328125 -0.296875 3.5 -0.875 C 3.5 -0.90625 3.515625 -0.921875 3.515625 -0.953125 C 3.515625 -1.015625 3.453125 -1.078125 3.390625 -1.078125 C 3.234375 -1.078125 3.21875 -0.8125 3.140625 -0.71875 C 2.9375 -0.390625 2.546875 -0.1875 2.15625 -0.1875 C 1.734375 -0.1875 1.328125 -0.40625 1.125 -0.796875 C 0.953125 -1.109375 0.9375 -1.46875 0.9375 -1.8125 Z M 0.9375 -2.03125 C 1.03125 -2.484375 1.109375 -2.96875 1.578125 -3.203125 C 1.703125 -3.28125 1.84375 -3.3125 2 -3.3125 C 2.515625 -3.3125 2.859375 -2.890625 2.9375 -2.3125 C 2.953125 -2.21875 2.953125 -2.125 2.96875 -2.03125 Z M 0.9375 -2.03125 "/>
</g>
<g id="glyph-17-6">
<path d="M 0.34375 -5.421875 L 0.34375 -5.171875 C 0.4375 -5.171875 0.546875 -5.171875 0.640625 -5.171875 C 0.90625 -5.171875 1.15625 -5.140625 1.15625 -4.8125 L 1.15625 -0.75 C 1.15625 -0.703125 1.15625 -0.640625 1.15625 -0.59375 C 1.15625 -0.296875 0.890625 -0.265625 0.640625 -0.265625 C 0.53125 -0.265625 0.421875 -0.265625 0.34375 -0.265625 L 0.34375 -0.015625 L 2.6875 -0.015625 L 2.6875 -0.265625 C 2.59375 -0.265625 2.46875 -0.265625 2.375 -0.265625 C 2.109375 -0.265625 1.875 -0.3125 1.875 -0.625 L 1.875 -2.703125 L 4.421875 -2.703125 L 4.421875 -0.625 C 4.421875 -0.296875 4.15625 -0.265625 3.84375 -0.265625 L 3.625 -0.265625 L 3.625 -0.015625 L 5.96875 -0.015625 L 5.96875 -0.265625 C 5.875 -0.265625 5.765625 -0.265625 5.671875 -0.265625 C 5.40625 -0.265625 5.15625 -0.296875 5.15625 -0.59375 C 5.15625 -0.640625 5.15625 -0.703125 5.15625 -0.75 L 5.15625 -4.8125 C 5.15625 -5.140625 5.421875 -5.171875 5.6875 -5.171875 C 5.78125 -5.171875 5.875 -5.171875 5.96875 -5.171875 L 5.96875 -5.421875 L 3.625 -5.421875 L 3.625 -5.171875 C 3.71875 -5.171875 3.828125 -5.171875 3.921875 -5.171875 C 4.203125 -5.171875 4.421875 -5.125 4.421875 -4.8125 L 4.421875 -2.953125 L 1.875 -2.953125 L 1.875 -4.8125 C 1.875 -5.140625 2.15625 -5.171875 2.453125 -5.171875 L 2.6875 -5.171875 L 2.6875 -5.421875 Z M 0.34375 -5.421875 "/>
</g>
<g id="glyph-17-7">
<path d="M 0.3125 -3.40625 L 0.3125 -3.15625 L 0.421875 -3.15625 C 0.625 -3.15625 0.859375 -3.140625 0.90625 -2.90625 C 0.921875 -2.828125 0.921875 -2.75 0.921875 -2.65625 L 0.921875 -1.09375 C 0.921875 -0.859375 0.921875 -0.625 1.046875 -0.40625 C 1.265625 -0.03125 1.78125 0.078125 2.171875 0.078125 C 2.53125 0.078125 2.875 -0.046875 3.109375 -0.328125 C 3.171875 -0.390625 3.234375 -0.484375 3.265625 -0.578125 L 3.28125 0.078125 L 4.46875 -0.015625 L 4.46875 -0.265625 L 4.3125 -0.265625 C 4.09375 -0.265625 3.859375 -0.296875 3.859375 -0.65625 L 3.859375 -3.5 L 2.65625 -3.40625 L 2.65625 -3.15625 L 2.75 -3.15625 C 3.015625 -3.15625 3.25 -3.140625 3.25 -2.75 L 3.25 -1.390625 C 3.25 -0.765625 2.90625 -0.15625 2.234375 -0.15625 C 1.953125 -0.15625 1.59375 -0.21875 1.546875 -0.625 C 1.53125 -0.765625 1.53125 -0.90625 1.53125 -1.0625 L 1.53125 -3.5 Z M 0.3125 -3.40625 "/>
</g>
<g id="glyph-17-8">
<path d="M 0.3125 -3.40625 L 0.3125 -3.15625 L 0.46875 -3.15625 C 0.703125 -3.15625 0.921875 -3.125 0.921875 -2.75 L 0.921875 -0.609375 C 0.921875 -0.28125 0.71875 -0.265625 0.3125 -0.265625 L 0.3125 -0.015625 L 0.796875 -0.03125 L 1.640625 -0.03125 L 2.140625 -0.015625 L 2.140625 -0.265625 L 1.96875 -0.265625 C 1.71875 -0.265625 1.53125 -0.296875 1.53125 -0.59375 L 1.53125 -2.046875 C 1.53125 -2.640625 1.90625 -3.28125 2.6875 -3.28125 C 3.140625 -3.28125 3.265625 -2.890625 3.265625 -2.40625 L 3.265625 -0.578125 C 3.265625 -0.296875 3.046875 -0.265625 2.8125 -0.265625 L 2.65625 -0.265625 L 2.65625 -0.015625 L 3.15625 -0.03125 L 4 -0.03125 L 4.484375 -0.015625 L 4.484375 -0.265625 L 4.3125 -0.265625 C 4.0625 -0.265625 3.875 -0.296875 3.875 -0.59375 L 3.875 -2.046875 C 3.875 -2.640625 4.25 -3.28125 5.03125 -3.28125 C 5.484375 -3.28125 5.609375 -2.890625 5.609375 -2.40625 L 5.609375 -0.578125 C 5.609375 -0.296875 5.390625 -0.265625 5.15625 -0.265625 L 5 -0.265625 L 5 -0.015625 L 5.5 -0.03125 L 6.328125 -0.03125 L 6.8125 -0.015625 L 6.8125 -0.265625 L 6.6875 -0.265625 C 6.4375 -0.265625 6.21875 -0.296875 6.21875 -0.578125 L 6.21875 -2.28125 C 6.21875 -2.53125 6.203125 -2.796875 6.09375 -3.03125 C 5.890625 -3.375 5.484375 -3.5 5.109375 -3.5 C 4.625 -3.5 4.03125 -3.265625 3.84375 -2.765625 L 3.828125 -2.765625 C 3.765625 -3.3125 3.203125 -3.5 2.734375 -3.5 C 2.234375 -3.5 1.65625 -3.21875 1.484375 -2.734375 L 1.46875 -3.5 L 1.1875 -3.484375 Z M 0.3125 -3.40625 "/>
</g>
<g id="glyph-17-9">
<path d="M 1.0625 -3.125 C 1.3125 -3.25 1.546875 -3.3125 1.828125 -3.3125 C 2.375 -3.3125 2.734375 -2.90625 2.734375 -2.296875 L 2.734375 -2.125 C 1.75 -2.125 0.34375 -1.796875 0.34375 -0.8125 C 0.34375 -0.140625 1.15625 0.078125 1.671875 0.078125 C 2.109375 0.078125 2.609375 -0.125 2.8125 -0.578125 C 2.8125 -0.234375 3.09375 0.03125 3.421875 0.03125 C 3.828125 0.03125 4.15625 -0.265625 4.15625 -0.6875 L 4.15625 -1.15625 L 3.90625 -1.15625 L 3.90625 -0.765625 C 3.90625 -0.5625 3.875 -0.265625 3.625 -0.265625 C 3.375 -0.265625 3.34375 -0.5625 3.34375 -0.734375 L 3.34375 -2.078125 C 3.34375 -2.171875 3.34375 -2.265625 3.34375 -2.359375 C 3.34375 -3.15625 2.53125 -3.546875 1.84375 -3.546875 C 1.40625 -3.546875 0.609375 -3.40625 0.609375 -2.78125 C 0.609375 -2.609375 0.71875 -2.390625 0.953125 -2.390625 C 1.203125 -2.390625 1.359375 -2.5625 1.359375 -2.765625 C 1.359375 -2.921875 1.265625 -3.078125 1.0625 -3.125 Z M 2.734375 -1.90625 L 2.734375 -1.140625 C 2.734375 -0.578125 2.3125 -0.15625 1.765625 -0.15625 C 1.40625 -0.15625 1.03125 -0.390625 1 -0.765625 L 1 -0.796875 C 1 -1.671875 2.078125 -1.875 2.734375 -1.90625 Z M 2.734375 -1.90625 "/>
</g>
<g id="glyph-17-10">
<path d="M 0.15625 -5.421875 L 0.15625 -5.171875 L 0.3125 -5.171875 C 0.484375 -5.171875 0.671875 -5.15625 0.765625 -5.046875 C 0.859375 -4.9375 0.890625 -4.796875 0.9375 -4.671875 C 1.46875 -3.171875 1.96875 -1.65625 2.5 -0.15625 C 2.546875 -0.03125 2.5625 0.15625 2.734375 0.15625 L 2.75 0.15625 C 2.90625 0.140625 2.9375 -0.0625 2.984375 -0.171875 C 3.359375 -1.28125 3.75 -2.375 4.125 -3.484375 C 4.1875 -3.671875 4.25 -3.875 4.328125 -4.0625 C 4.40625 -3.859375 4.46875 -3.65625 4.546875 -3.453125 L 4.921875 -2.328125 C 5.171875 -1.609375 5.453125 -0.90625 5.671875 -0.171875 C 5.703125 -0.0625 5.734375 0.140625 5.890625 0.15625 L 5.953125 0.15625 C 6.09375 0.140625 6.109375 -0.03125 6.15625 -0.140625 C 6.46875 -1.078125 6.796875 -2 7.109375 -2.921875 C 7.265625 -3.34375 7.390625 -3.78125 7.5625 -4.21875 C 7.703125 -4.640625 7.765625 -5.171875 8.5 -5.171875 L 8.5 -5.421875 L 8.109375 -5.40625 L 7.34375 -5.40625 L 6.796875 -5.421875 L 6.796875 -5.171875 C 7.0625 -5.171875 7.4375 -5.078125 7.46875 -4.765625 L 7.46875 -4.75 C 7.46875 -4.625 7.390625 -4.5 7.359375 -4.390625 C 6.9375 -3.234375 6.578125 -2.078125 6.15625 -0.921875 C 6.046875 -1.21875 5.9375 -1.53125 5.84375 -1.8125 C 5.515625 -2.765625 5.1875 -3.703125 4.875 -4.65625 C 4.84375 -4.734375 4.78125 -4.828125 4.78125 -4.921875 C 4.78125 -5.171875 5.203125 -5.171875 5.421875 -5.171875 L 5.421875 -5.421875 L 3.34375 -5.421875 L 3.34375 -5.171875 L 3.515625 -5.171875 C 3.953125 -5.171875 4.015625 -4.984375 4.109375 -4.6875 L 4.15625 -4.546875 C 4.171875 -4.515625 4.1875 -4.484375 4.1875 -4.4375 C 4.171875 -4.328125 4.109375 -4.203125 4.0625 -4.078125 C 3.8125 -3.28125 3.515625 -2.46875 3.234375 -1.6875 C 3.15625 -1.421875 3.078125 -1.171875 2.96875 -0.921875 C 2.828125 -1.25 2.75 -1.609375 2.625 -1.9375 C 2.28125 -2.90625 1.984375 -3.875 1.625 -4.828125 C 1.625 -4.859375 1.609375 -4.890625 1.609375 -4.921875 C 1.609375 -5.171875 2.03125 -5.171875 2.25 -5.171875 L 2.25 -5.421875 Z M 0.15625 -5.421875 "/>
</g>
<g id="glyph-17-11">
<path d="M 0.328125 -5.421875 L 0.328125 -5.171875 L 0.421875 -5.171875 C 0.6875 -5.171875 0.921875 -5.15625 0.921875 -4.75 L 0.921875 -0.78125 C 0.921875 -0.71875 0.9375 -0.671875 0.9375 -0.609375 C 0.9375 -0.28125 0.6875 -0.265625 0.40625 -0.265625 L 0.328125 -0.265625 L 0.328125 -0.015625 L 0.796875 -0.03125 L 1.625 -0.03125 L 2.125 -0.015625 L 2.125 -0.265625 L 1.9375 -0.265625 C 1.71875 -0.265625 1.515625 -0.296875 1.515625 -0.578125 L 1.515625 -5.515625 Z M 0.328125 -5.421875 "/>
</g>
<g id="glyph-17-12">
<path d="M 0.3125 -5.421875 L 0.3125 -5.171875 L 0.453125 -5.171875 C 0.71875 -5.171875 0.921875 -5.140625 0.921875 -4.765625 L 0.921875 -0.78125 C 0.921875 -0.734375 0.921875 -0.671875 0.921875 -0.609375 C 0.921875 -0.28125 0.6875 -0.265625 0.359375 -0.265625 L 0.3125 -0.265625 L 0.3125 -0.015625 L 0.796875 -0.03125 L 1.640625 -0.03125 L 2.140625 -0.015625 L 2.140625 -0.265625 L 1.96875 -0.265625 C 1.71875 -0.265625 1.53125 -0.296875 1.53125 -0.59375 L 1.53125 -2.0625 C 1.53125 -2.640625 1.921875 -3.28125 2.6875 -3.28125 C 3.140625 -3.28125 3.25 -2.875 3.25 -2.40625 L 3.25 -0.578125 C 3.25 -0.296875 3.046875 -0.265625 2.8125 -0.265625 L 2.65625 -0.265625 L 2.65625 -0.015625 L 3.15625 -0.03125 L 3.984375 -0.03125 L 4.46875 -0.015625 L 4.46875 -0.265625 L 4.3125 -0.265625 C 4.09375 -0.265625 3.859375 -0.296875 3.859375 -0.578125 L 3.859375 -2.296875 C 3.859375 -2.546875 3.859375 -2.78125 3.75 -3.015625 C 3.5625 -3.375 3.140625 -3.5 2.75 -3.5 C 2.28125 -3.5 1.71875 -3.265625 1.515625 -2.796875 L 1.515625 -5.515625 Z M 0.3125 -5.421875 "/>
</g>
<g id="glyph-17-13">
<path d="M 1.109375 -3.40625 C 0.875 -3.375 0.734375 -3.171875 0.734375 -2.96875 C 0.734375 -2.765625 0.90625 -2.546875 1.15625 -2.546875 C 1.421875 -2.546875 1.609375 -2.75 1.609375 -2.984375 C 1.609375 -3.203125 1.4375 -3.421875 1.1875 -3.421875 C 1.15625 -3.421875 1.140625 -3.40625 1.109375 -3.40625 Z M 1.109375 -0.875 C 0.875 -0.84375 0.734375 -0.640625 0.734375 -0.4375 C 0.734375 -0.234375 0.90625 -0.015625 1.15625 -0.015625 C 1.421875 -0.015625 1.609375 -0.21875 1.609375 -0.453125 C 1.609375 -0.671875 1.4375 -0.890625 1.1875 -0.890625 C 1.15625 -0.890625 1.140625 -0.875 1.109375 -0.875 Z M 1.109375 -0.875 "/>
</g>
<g id="glyph-18-0">
<path d="M 6.328125 -5.375 C 6.328125 -5.40625 6.34375 -5.453125 6.34375 -5.5 C 6.34375 -5.546875 6.296875 -5.59375 6.25 -5.59375 C 6.1875 -5.59375 6.171875 -5.5625 6.109375 -5.5 L 5.546875 -4.875 C 5.1875 -5.390625 4.671875 -5.59375 4.125 -5.59375 C 2.265625 -5.59375 0.421875 -3.875 0.421875 -2.0625 C 0.421875 -0.734375 1.40625 0.171875 2.75 0.171875 C 3.609375 0.171875 4.25 -0.140625 4.546875 -0.484375 C 4.640625 -0.234375 4.828125 -0.015625 4.90625 -0.015625 C 4.9375 -0.015625 4.984375 -0.03125 5 -0.0625 C 5.046875 -0.1875 5.234375 -1 5.28125 -1.21875 C 5.359375 -1.546875 5.40625 -1.765625 5.46875 -1.828125 C 5.53125 -1.921875 5.6875 -1.921875 5.921875 -1.921875 C 5.96875 -1.921875 6.078125 -1.921875 6.078125 -2.078125 C 6.078125 -2.15625 6.03125 -2.1875 5.96875 -2.1875 C 5.90625 -2.1875 5.8125 -2.171875 5.046875 -2.171875 C 4.84375 -2.171875 4.578125 -2.171875 4.453125 -2.171875 C 4.328125 -2.1875 4.015625 -2.1875 3.890625 -2.1875 C 3.84375 -2.1875 3.734375 -2.1875 3.734375 -2.046875 C 3.734375 -1.921875 3.8125 -1.921875 4.03125 -1.921875 C 4.1875 -1.921875 4.5 -1.921875 4.6875 -1.859375 C 4.6875 -1.84375 4.703125 -1.796875 4.703125 -1.765625 C 4.703125 -1.71875 4.65625 -1.546875 4.625 -1.4375 C 4.578125 -1.234375 4.5 -0.90625 4.453125 -0.828125 C 4.203125 -0.296875 3.4375 -0.09375 2.890625 -0.09375 C 2.109375 -0.09375 1.1875 -0.515625 1.1875 -1.796875 C 1.1875 -2.453125 1.453125 -3.609375 2.15625 -4.359375 C 2.90625 -5.1875 3.765625 -5.328125 4.1875 -5.328125 C 5.15625 -5.328125 5.59375 -4.5625 5.59375 -3.765625 C 5.59375 -3.65625 5.5625 -3.515625 5.5625 -3.40625 C 5.5625 -3.3125 5.671875 -3.3125 5.703125 -3.3125 C 5.796875 -3.3125 5.8125 -3.34375 5.84375 -3.484375 Z M 6.328125 -5.375 "/>
</g>
<g id="glyph-18-1">
<path d="M 5.6875 -1.78125 C 5.78125 -1.828125 5.84375 -1.875 5.84375 -1.984375 C 5.84375 -2.09375 5.78125 -2.140625 5.6875 -2.1875 L 1.03125 -4.421875 C 0.921875 -4.484375 0.90625 -4.484375 0.875 -4.484375 C 0.78125 -4.484375 0.703125 -4.390625 0.703125 -4.296875 C 0.703125 -4.1875 0.765625 -4.140625 0.859375 -4.09375 L 5.25 -1.984375 L 0.859375 0.125 C 0.765625 0.171875 0.703125 0.21875 0.703125 0.328125 C 0.703125 0.421875 0.78125 0.515625 0.875 0.515625 C 0.90625 0.515625 0.921875 0.515625 1.03125 0.453125 Z M 5.6875 -1.78125 "/>
</g>
<g id="glyph-18-2">
<path d="M 3.078125 -4.859375 C 3.15625 -5.140625 3.15625 -5.15625 3.484375 -5.15625 L 4.125 -5.15625 C 4.78125 -5.15625 5.390625 -5 5.390625 -4.34375 C 5.390625 -4 5.203125 -3.4375 4.84375 -3.1875 C 4.453125 -2.90625 4.015625 -2.828125 3.546875 -2.828125 L 2.578125 -2.828125 Z M 4.421875 -2.703125 C 5.40625 -2.9375 6.171875 -3.546875 6.171875 -4.21875 C 6.171875 -4.90625 5.390625 -5.421875 4.28125 -5.421875 L 1.9375 -5.421875 C 1.796875 -5.421875 1.703125 -5.421875 1.703125 -5.265625 C 1.703125 -5.15625 1.796875 -5.15625 1.921875 -5.15625 C 2.1875 -5.15625 2.421875 -5.15625 2.421875 -5.03125 C 2.421875 -5 2.40625 -5 2.390625 -4.890625 L 1.328125 -0.625 C 1.25 -0.328125 1.234375 -0.265625 0.65625 -0.265625 C 0.5 -0.265625 0.40625 -0.265625 0.40625 -0.109375 C 0.40625 -0.078125 0.421875 0 0.53125 0 C 0.6875 0 0.859375 -0.015625 1.03125 -0.03125 L 1.515625 -0.03125 C 2.25 -0.03125 2.484375 0 2.53125 0 C 2.578125 0 2.6875 0 2.6875 -0.15625 C 2.6875 -0.265625 2.59375 -0.265625 2.453125 -0.265625 C 2.421875 -0.265625 2.28125 -0.265625 2.15625 -0.28125 C 1.984375 -0.296875 1.96875 -0.3125 1.96875 -0.390625 C 1.96875 -0.421875 1.984375 -0.46875 2 -0.515625 L 2.515625 -2.609375 L 3.546875 -2.609375 C 4.25 -2.609375 4.484375 -2.21875 4.484375 -1.890625 C 4.484375 -1.78125 4.421875 -1.5625 4.375 -1.390625 C 4.3125 -1.171875 4.234375 -0.84375 4.234375 -0.703125 C 4.234375 -0.09375 4.765625 0.171875 5.34375 0.171875 C 6.046875 0.171875 6.359375 -0.609375 6.359375 -0.765625 C 6.359375 -0.796875 6.34375 -0.875 6.234375 -0.875 C 6.15625 -0.875 6.125 -0.796875 6.125 -0.765625 C 5.9375 -0.21875 5.609375 -0.0625 5.375 -0.0625 C 5.078125 -0.0625 5.046875 -0.28125 5.046875 -0.546875 C 5.046875 -0.796875 5.09375 -1.15625 5.125 -1.40625 C 5.15625 -1.65625 5.15625 -1.703125 5.15625 -1.78125 C 5.15625 -2.25 4.84375 -2.53125 4.421875 -2.703125 Z M 4.421875 -2.703125 "/>
</g>
</g>
</defs>
<g fill="rgb(0%, 0%, 0%)" fill-opacity="1">
<use xlink:href="#glyph-0-0" x="127.114889" y="62.318485"/>
</g>
<g fill="rgb(0%, 0%, 0%)" fill-opacity="1">
<use xlink:href="#glyph-1-0" x="127.114889" y="62.318485"/>
</g>
<g fill="rgb(0%, 0%, 0%)" fill-opacity="1">
<use xlink:href="#glyph-0-0" x="56.56983" y="127.220218"/>
</g>
<g fill="rgb(0%, 0%, 0%)" fill-opacity="1">
<use xlink:href="#glyph-1-0" x="56.56983" y="127.220218"/>
</g>
<g fill="rgb(0%, 0%, 0%)" fill-opacity="1">
<use xlink:href="#glyph-2-0" x="15.000946" y="20.926795"/>
</g>
<g fill="rgb(0%, 0%, 0%)" fill-opacity="1">
<use xlink:href="#glyph-3-0" x="183.509326" y="20.899917"/>
</g>
<g fill="rgb(0%, 0%, 0%)" fill-opacity="1">
<use xlink:href="#glyph-3-1" x="14.296152" y="190.208655"/>
</g>
<g fill="rgb(0%, 0%, 0%)" fill-opacity="1">
<use xlink:href="#glyph-3-0" x="162.918005" y="182.947689"/>
</g>
<g fill="rgb(0%, 0%, 0%)" fill-opacity="1">
<use xlink:href="#glyph-1-1" x="170.71553" y="182.947689"/>
</g>
<g fill="rgb(0%, 0%, 0%)" fill-opacity="1">
<use xlink:href="#glyph-3-1" x="174.571986" y="182.947689"/>
</g>
<g fill="rgb(0%, 0%, 0%)" fill-opacity="1">
<use xlink:href="#glyph-3-2" x="182.181669" y="182.947689"/>
<use xlink:href="#glyph-3-0" x="187.140409" y="182.947689"/>
</g>
<g fill="rgb(0%, 0%, 0%)" fill-opacity="1">
<use xlink:href="#glyph-1-2" x="194.935343" y="182.947689"/>
</g>
<g fill="rgb(0%, 0%, 0%)" fill-opacity="1">
<use xlink:href="#glyph-4-0" x="198.792794" y="178.853316"/>
</g>
<g fill="rgb(0%, 0%, 0%)" fill-opacity="1">
<use xlink:href="#glyph-5-0" x="202.74581" y="178.853316"/>
<use xlink:href="#glyph-5-1" x="206.80909" y="178.853316"/>
</g>
<g fill="rgb(0%, 0%, 0%)" fill-opacity="1">
<use xlink:href="#glyph-6-0" x="162.918005" y="189.592459"/>
</g>
<path fill-rule="nonzero" fill="rgb(0%, 0%, 0%)" fill-opacity="1" d="M 167.378906 189.59375 L 182.945312 189.59375 L 182.945312 188.402344 L 167.378906 188.402344 Z M 167.378906 189.59375 "/>
<g fill="rgb(0%, 0%, 0%)" fill-opacity="1">
<use xlink:href="#glyph-6-1" x="182.944893" y="189.592459"/>
<use xlink:href="#glyph-6-2" x="187.40776" y="189.592459"/>
</g>
<path fill-rule="nonzero" fill="rgb(0%, 0%, 0%)" fill-opacity="1" d="M 191.871094 189.59375 L 207.433594 189.59375 L 207.433594 188.402344 L 191.871094 188.402344 Z M 191.871094 189.59375 "/>
<g fill="rgb(0%, 0%, 0%)" fill-opacity="1">
<use xlink:href="#glyph-6-3" x="207.435475" y="189.592459"/>
</g>
<g fill="rgb(0%, 0%, 0%)" fill-opacity="1">
<use xlink:href="#glyph-7-0" x="176.866547" y="199.001652"/>
<use xlink:href="#glyph-7-1" x="181.982266" y="199.001652"/>
</g>
<g fill="rgb(0%, 0%, 0%)" fill-opacity="1">
<use xlink:href="#glyph-7-2" x="186.981356" y="199.001652"/>
<use xlink:href="#glyph-7-0" x="192.834339" y="199.001652"/>
</g>
<path fill="none" stroke-width="0.3985" stroke-linecap="butt" stroke-linejoin="miter" stroke="rgb(0%, 0%, 0%)" stroke-opacity="1" stroke-miterlimit="10" d="M 6.633319 -0.000387437 L 159.058002 -0.000387437 " transform="matrix(0.995471, 0, 0, -0.995471, 18.099848, 17.511333)"/>
<path fill-rule="nonzero" fill="rgb(0%, 0%, 0%)" fill-opacity="1" d="M 180.007812 17.511719 C 178.949219 17.3125 177.230469 16.71875 176.042969 16.023438 L 176.042969 19 C 177.230469 18.304688 178.949219 17.710938 180.007812 17.511719 "/>
<g fill="rgb(0%, 0%, 0%)" fill-opacity="1">
<use xlink:href="#glyph-8-0" x="47.700182" y="12.273164"/>
<use xlink:href="#glyph-8-1" x="54.897049" y="12.273164"/>
<use xlink:href="#glyph-8-2" x="58.484325" y="12.273164"/>
</g>
<g fill="rgb(0%, 0%, 0%)" fill-opacity="1">
<use xlink:href="#glyph-8-3" x="62.811549" y="12.273164"/>
<use xlink:href="#glyph-8-4" x="69.43538" y="12.273164"/>
<use xlink:href="#glyph-8-5" x="73.002127" y="12.273164"/>
</g>
<g fill="rgb(0%, 0%, 0%)" fill-opacity="1">
<use xlink:href="#glyph-8-6" x="81.158516" y="12.273164"/>
<use xlink:href="#glyph-8-7" x="84.469092" y="12.273164"/>
<use xlink:href="#glyph-8-8" x="92.112248" y="12.273164"/>
<use xlink:href="#glyph-8-9" x="97.207091" y="12.273164"/>
<use xlink:href="#glyph-8-4" x="101.793163" y="12.273164"/>
<use xlink:href="#glyph-8-10" x="105.35991" y="12.273164"/>
<use xlink:href="#glyph-8-11" x="107.907331" y="12.273164"/>
<use xlink:href="#glyph-8-12" x="111.987311" y="12.273164"/>
<use xlink:href="#glyph-8-13" x="117.082153" y="12.273164"/>
<use xlink:href="#glyph-8-11" x="121.158563" y="12.273164"/>
<use xlink:href="#glyph-8-14" x="125.238542" y="12.273164"/>
</g>
<g fill="rgb(0%, 0%, 0%)" fill-opacity="1">
<use xlink:href="#glyph-8-15" x="131.865051" y="12.273164"/>
</g>
<g fill="rgb(0%, 0%, 0%)" fill-opacity="1">
<use xlink:href="#glyph-9-0" x="140.140629" y="12.273164"/>
</g>
<g fill="rgb(0%, 0%, 0%)" fill-opacity="1">
<use xlink:href="#glyph-9-1" x="149.819759" y="12.273164"/>
</g>
<path fill="none" stroke-width="0.3985" stroke-linecap="butt" stroke-linejoin="miter" stroke="rgb(0%, 0%, 0%)" stroke-opacity="1" stroke-miterlimit="10" d="M 0.00172259 -6.949829 L 0.00172259 -159.570713 " transform="matrix(0.995471, 0, 0, -0.995471, 18.099848, 17.511333)"/>
<path fill-rule="nonzero" fill="rgb(0%, 0%, 0%)" fill-opacity="1" d="M 18.101562 179.929688 C 18.296875 178.871094 18.894531 177.152344 19.585938 175.964844 L 16.613281 175.964844 C 17.304688 177.152344 17.902344 178.871094 18.101562 179.929688 "/>
<g fill="rgb(0%, 0%, 0%)" fill-opacity="1">
<use xlink:href="#glyph-10-0" x="7.673283" y="56.950905"/>
<use xlink:href="#glyph-10-1" x="7.673283" y="63.150536"/>
<use xlink:href="#glyph-10-2" x="7.673283" y="66.89618"/>
<use xlink:href="#glyph-10-3" x="7.673283" y="70.173717"/>
<use xlink:href="#glyph-10-4" x="7.673283" y="74.855573"/>
<use xlink:href="#glyph-10-5" x="7.673283" y="78.140251"/>
</g>
<g fill="rgb(0%, 0%, 0%)" fill-opacity="1">
<use xlink:href="#glyph-10-6" x="7.673283" y="85.630745"/>
<use xlink:href="#glyph-10-7" x="7.673283" y="88.665501"/>
<use xlink:href="#glyph-10-8" x="7.673283" y="95.688682"/>
<use xlink:href="#glyph-10-9" x="7.673283" y="100.370539"/>
<use xlink:href="#glyph-10-2" x="7.673283" y="104.584288"/>
<use xlink:href="#glyph-10-10" x="7.673283" y="107.861826"/>
<use xlink:href="#glyph-10-1" x="7.673283" y="110.20315"/>
<use xlink:href="#glyph-10-5" x="7.673283" y="113.948794"/>
<use xlink:href="#glyph-10-11" x="7.673283" y="118.63065"/>
<use xlink:href="#glyph-10-1" x="7.673283" y="122.376294"/>
<use xlink:href="#glyph-10-12" x="7.673283" y="126.121937"/>
</g>
<g fill="rgb(0%, 0%, 0%)" fill-opacity="1">
<use xlink:href="#glyph-10-13" x="7.673283" y="132.208112"/>
</g>
<g fill="rgb(0%, 0%, 0%)" fill-opacity="1">
<use xlink:href="#glyph-11-0" x="7.673283" y="139.814919"/>
</g>
<g fill="rgb(0%, 0%, 0%)" fill-opacity="1">
<use xlink:href="#glyph-11-1" x="7.673283" y="148.712112"/>
</g>
<path fill="none" stroke-width="0.3985" stroke-linecap="butt" stroke-linejoin="miter" stroke="rgb(0%, 0%, 0%)" stroke-opacity="1" stroke-miterlimit="10" d="M 6.633319 -6.620211 L 150.829329 -150.792678 " transform="matrix(0.995471, 0, 0, -0.995471, 18.099848, 17.511333)"/>
<path fill-rule="nonzero" fill="rgb(0%, 0%, 0%)" fill-opacity="1" d="M 170.773438 170.144531 C 170.164062 169.257812 169.371094 167.621094 169.019531 166.289062 L 166.914062 168.390625 C 168.246094 168.742188 169.882812 169.539062 170.773438 170.144531 "/>
<g fill="rgb(0%, 0%, 0%)" fill-opacity="1">
<use xlink:href="#glyph-12-0" x="62.829353" y="55.909642"/>
<use xlink:href="#glyph-12-1" x="67.242303" y="60.322592"/>
<use xlink:href="#glyph-12-2" x="71.475378" y="64.555667"/>
<use xlink:href="#glyph-12-1" x="73.637042" y="66.717331"/>
<use xlink:href="#glyph-12-3" x="77.870117" y="70.950406"/>
</g>
<g fill="rgb(0%, 0%, 0%)" fill-opacity="1">
<use xlink:href="#glyph-12-4" x="82.013569" y="75.093858"/>
</g>
<g fill="rgb(0%, 0%, 0%)" fill-opacity="1">
<use xlink:href="#glyph-12-5" x="86.693493" y="79.773782"/>
<use xlink:href="#glyph-12-6" x="91.377204" y="84.457493"/>
</g>
<g fill="rgb(0%, 0%, 0%)" fill-opacity="1">
<use xlink:href="#glyph-12-7" x="95.343305" y="88.423594"/>
</g>
<g fill="rgb(0%, 0%, 0%)" fill-opacity="1">
<use xlink:href="#glyph-13-0" x="101.195999" y="94.276287"/>
</g>
<g fill="rgb(0%, 0%, 0%)" fill-opacity="1">
<use xlink:href="#glyph-12-0" x="108.042811" y="101.1231"/>
<use xlink:href="#glyph-12-1" x="112.455761" y="105.53605"/>
<use xlink:href="#glyph-12-2" x="116.688836" y="109.769125"/>
<use xlink:href="#glyph-12-1" x="118.8505" y="111.930789"/>
<use xlink:href="#glyph-12-3" x="123.083575" y="116.163864"/>
</g>
<g fill="rgb(0%, 0%, 0%)" fill-opacity="1">
<use xlink:href="#glyph-12-4" x="127.227027" y="120.307316"/>
<use xlink:href="#glyph-12-1" x="132.089983" y="125.170271"/>
</g>
<path fill="none" stroke-width="0.3985" stroke-linecap="butt" stroke-linejoin="miter" stroke="rgb(0%, 0%, 0%)" stroke-opacity="1" stroke-miterlimit="10" d="M 170.080577 -6.922361 L 170.080577 -149.74104 " transform="matrix(0.995471, 0, 0, -0.995471, 18.099848, 17.511333)"/>
<path fill-rule="nonzero" fill="rgb(0%, 0%, 0%)" fill-opacity="1" d="M 187.410156 170.144531 C 187.609375 169.085938 188.203125 167.367188 188.898438 166.179688 L 185.921875 166.179688 C 186.617188 167.367188 187.210938 169.085938 187.410156 170.144531 "/>
<g fill="rgb(0%, 0%, 0%)" fill-opacity="1">
<use xlink:href="#glyph-10-14" x="193.234083" y="24.587142"/>
<use xlink:href="#glyph-10-10" x="193.234083" y="30.084614"/>
<use xlink:href="#glyph-10-5" x="193.234083" y="32.425939"/>
<use xlink:href="#glyph-10-10" x="193.234083" y="37.107795"/>
<use xlink:href="#glyph-10-2" x="193.234083" y="39.44912"/>
<use xlink:href="#glyph-10-1" x="193.234083" y="42.726657"/>
</g>
<g fill="rgb(0%, 0%, 0%)" fill-opacity="1">
<use xlink:href="#glyph-10-15" x="193.234083" y="49.280938"/>
<use xlink:href="#glyph-10-3" x="193.234083" y="55.593232"/>
<use xlink:href="#glyph-10-7" x="193.234083" y="60.275088"/>
<use xlink:href="#glyph-10-9" x="193.234083" y="67.298269"/>
<use xlink:href="#glyph-10-5" x="193.234083" y="71.512019"/>
</g>
<g fill="rgb(0%, 0%, 0%)" fill-opacity="1">
<use xlink:href="#glyph-10-16" x="193.234083" y="79.002513"/>
</g>
<g fill="rgb(0%, 0%, 0%)" fill-opacity="1">
<use xlink:href="#glyph-10-1" x="193.234083" y="86.957939"/>
<use xlink:href="#glyph-10-9" x="193.234083" y="90.703583"/>
<use xlink:href="#glyph-10-17" x="193.234083" y="94.917333"/>
<use xlink:href="#glyph-10-2" x="193.234083" y="97.258658"/>
<use xlink:href="#glyph-10-18" x="193.234083" y="100.536195"/>
<use xlink:href="#glyph-10-12" x="193.234083" y="105.218051"/>
</g>
<g fill="rgb(0%, 0%, 0%)" fill-opacity="1">
<use xlink:href="#glyph-11-2" x="193.234083" y="111.302634"/>
</g>
<g fill="rgb(0%, 0%, 0%)" fill-opacity="1">
<use xlink:href="#glyph-11-0" x="193.234083" y="120.211728"/>
</g>
<g fill="rgb(0%, 0%, 0%)" fill-opacity="1">
<use xlink:href="#glyph-11-2" x="193.234083" y="129.108921"/>
</g>
<g fill="rgb(0%, 0%, 0%)" fill-opacity="1">
<use xlink:href="#glyph-14-0" x="193.234083" y="135.680727"/>
</g>
<g fill="rgb(0%, 0%, 0%)" fill-opacity="1">
<use xlink:href="#glyph-11-1" x="193.234083" y="138.958814"/>
</g>
<g fill="rgb(0%, 0%, 0%)" fill-opacity="1">
<use xlink:href="#glyph-11-3" x="193.234083" y="145.355208"/>
<use xlink:href="#glyph-11-2" x="193.234083" y="149.570545"/>
</g>
<g fill="rgb(0%, 0%, 0%)" fill-opacity="1">
<use xlink:href="#glyph-14-1" x="193.234083" y="156.140646"/>
</g>
<g fill="rgb(0%, 0%, 0%)" fill-opacity="1">
<use xlink:href="#glyph-15-0" x="196.033348" y="159.418732"/>
</g>
<g fill="rgb(0%, 0%, 0%)" fill-opacity="1">
<use xlink:href="#glyph-16-0" x="196.033348" y="163.055189"/>
<use xlink:href="#glyph-16-1" x="196.033348" y="166.856981"/>
</g>
<path fill="none" stroke-width="0.3985" stroke-linecap="butt" stroke-linejoin="miter" stroke="rgb(0%, 0%, 0%)" stroke-opacity="1" stroke-miterlimit="10" d="M 138.374485 -170.079242 L 7.339642 -170.079242 " transform="matrix(0.995471, 0, 0, -0.995471, 18.099848, 17.511333)"/>
<path fill-rule="nonzero" fill="rgb(0%, 0%, 0%)" fill-opacity="1" d="M 159.417969 186.820312 C 158.359375 186.625 156.640625 186.027344 155.449219 185.335938 L 155.449219 188.308594 C 156.640625 187.617188 158.359375 187.019531 159.417969 186.820312 "/>
<g fill="rgb(0%, 0%, 0%)" fill-opacity="1">
<use xlink:href="#glyph-17-0" x="34.66847" y="195.787276"/>
<use xlink:href="#glyph-17-1" x="37.703226" y="195.787276"/>
<use xlink:href="#glyph-17-2" x="42.385083" y="195.787276"/>
<use xlink:href="#glyph-17-1" x="47.066939" y="195.787276"/>
<use xlink:href="#glyph-17-3" x="51.748795" y="195.787276"/>
<use xlink:href="#glyph-17-4" x="54.09012" y="195.787276"/>
<use xlink:href="#glyph-17-5" x="57.367657" y="195.787276"/>
</g>
<g fill="rgb(0%, 0%, 0%)" fill-opacity="1">
<use xlink:href="#glyph-17-6" x="63.921938" y="195.787276"/>
<use xlink:href="#glyph-17-7" x="70.234232" y="195.787276"/>
<use xlink:href="#glyph-17-8" x="74.916088" y="195.787276"/>
<use xlink:href="#glyph-17-9" x="81.939269" y="195.787276"/>
<use xlink:href="#glyph-17-1" x="86.153019" y="195.787276"/>
</g>
<g fill="rgb(0%, 0%, 0%)" fill-opacity="1">
<use xlink:href="#glyph-17-10" x="93.643513" y="195.787276"/>
</g>
<g fill="rgb(0%, 0%, 0%)" fill-opacity="1">
<use xlink:href="#glyph-17-5" x="101.598939" y="195.787276"/>
<use xlink:href="#glyph-17-9" x="105.344583" y="195.787276"/>
<use xlink:href="#glyph-17-11" x="109.558333" y="195.787276"/>
<use xlink:href="#glyph-17-4" x="111.899658" y="195.787276"/>
<use xlink:href="#glyph-17-12" x="115.177195" y="195.787276"/>
<use xlink:href="#glyph-17-13" x="119.859051" y="195.787276"/>
</g>
<g fill="rgb(0%, 0%, 0%)" fill-opacity="1">
<use xlink:href="#glyph-18-0" x="125.945211" y="195.787276"/>
</g>
<g fill="rgb(0%, 0%, 0%)" fill-opacity="1">
<use xlink:href="#glyph-18-1" x="134.854304" y="195.787276"/>
</g>
<g fill="rgb(0%, 0%, 0%)" fill-opacity="1">
<use xlink:href="#glyph-18-2" x="143.751497" y="195.787276"/>
</g>
</svg>
