<?xml version="1.0" encoding="UTF-8"?>
<svg xmlns="http://www.w3.org/2000/svg" xmlns:xlink="http://www.w3.org/1999/xlink" width="91.649pt" height="87.202pt" viewBox="0 0 91.649 87.202">
<defs>
<g>
<g id="glyph-0-0">
<path d="M 3.296875 -2.984375 C 3.359375 -3.234375 3.578125 -4.140625 4.28125 -4.140625 C 4.328125 -4.140625 4.5625 -4.140625 4.765625 -4.015625 C 4.5 -3.96875 4.296875 -3.71875 4.296875 -3.484375 C 4.296875 -3.328125 4.40625 -3.140625 4.671875 -3.140625 C 4.890625 -3.140625 5.203125 -3.3125 5.203125 -3.71875 C 5.203125 -4.21875 4.625 -4.359375 4.28125 -4.359375 C 3.71875 -4.359375 3.375 -3.84375 3.25 -3.609375 C 3 -4.265625 2.46875 -4.359375 2.1875 -4.359375 C 1.15625 -4.359375 0.59375 -3.09375 0.59375 -2.84375 C 0.59375 -2.75 0.6875 -2.75 0.71875 -2.75 C 0.796875 -2.75 0.8125 -2.765625 0.84375 -2.859375 C 1.171875 -3.90625 1.828125 -4.140625 2.15625 -4.140625 C 2.34375 -4.140625 2.703125 -4.0625 2.703125 -3.484375 C 2.703125 -3.1875 2.53125 -2.515625 2.15625 -1.140625 C 2 -0.515625 1.65625 -0.109375 1.21875 -0.109375 C 1.171875 -0.109375 0.9375 -0.109375 0.734375 -0.234375 C 0.984375 -0.28125 1.1875 -0.5 1.1875 -0.765625 C 1.1875 -1.03125 0.984375 -1.109375 0.828125 -1.109375 C 0.53125 -1.109375 0.28125 -0.859375 0.28125 -0.546875 C 0.28125 -0.09375 0.78125 0.109375 1.21875 0.109375 C 1.859375 0.109375 2.21875 -0.578125 2.25 -0.640625 C 2.375 -0.28125 2.71875 0.109375 3.3125 0.109375 C 4.328125 0.109375 4.890625 -1.171875 4.890625 -1.40625 C 4.890625 -1.515625 4.8125 -1.515625 4.78125 -1.515625 C 4.6875 -1.515625 4.671875 -1.46875 4.65625 -1.40625 C 4.328125 -0.34375 3.65625 -0.109375 3.34375 -0.109375 C 2.953125 -0.109375 2.796875 -0.421875 2.796875 -0.765625 C 2.796875 -0.984375 2.859375 -1.1875 2.96875 -1.625 Z M 3.296875 -2.984375 "/>
</g>
<g id="glyph-0-1">
<path d="M 4.796875 -3.765625 C 4.84375 -3.90625 4.84375 -3.921875 4.84375 -3.984375 C 4.84375 -4.171875 4.703125 -4.25 4.546875 -4.25 C 4.453125 -4.25 4.296875 -4.203125 4.203125 -4.046875 C 4.1875 -4 4.109375 -3.6875 4.0625 -3.515625 C 4 -3.265625 3.9375 -2.984375 3.875 -2.71875 L 3.421875 -0.953125 C 3.390625 -0.796875 2.96875 -0.109375 2.3125 -0.109375 C 1.8125 -0.109375 1.703125 -0.546875 1.703125 -0.90625 C 1.703125 -1.359375 1.859375 -1.96875 2.203125 -2.84375 C 2.359375 -3.25 2.40625 -3.359375 2.40625 -3.5625 C 2.40625 -4 2.078125 -4.359375 1.59375 -4.359375 C 0.65625 -4.359375 0.28125 -2.9375 0.28125 -2.84375 C 0.28125 -2.75 0.390625 -2.75 0.40625 -2.75 C 0.5 -2.75 0.515625 -2.765625 0.5625 -2.921875 C 0.828125 -3.84375 1.21875 -4.140625 1.5625 -4.140625 C 1.640625 -4.140625 1.8125 -4.140625 1.8125 -3.828125 C 1.8125 -3.578125 1.703125 -3.328125 1.640625 -3.140625 C 1.25 -2.09375 1.0625 -1.53125 1.0625 -1.0625 C 1.0625 -0.1875 1.6875 0.109375 2.265625 0.109375 C 2.65625 0.109375 2.984375 -0.0625 3.265625 -0.328125 C 3.140625 0.171875 3.015625 0.65625 2.625 1.1875 C 2.375 1.515625 2 1.8125 1.546875 1.8125 C 1.40625 1.8125 0.953125 1.78125 0.796875 1.390625 C 0.953125 1.390625 1.078125 1.390625 1.21875 1.28125 C 1.3125 1.1875 1.40625 1.0625 1.40625 0.875 C 1.40625 0.5625 1.140625 0.515625 1.046875 0.515625 C 0.8125 0.515625 0.5 0.6875 0.5 1.171875 C 0.5 1.65625 0.921875 2.03125 1.546875 2.03125 C 2.5625 2.03125 3.578125 1.125 3.84375 0.015625 Z M 4.796875 -3.765625 "/>
</g>
<g id="glyph-0-2">
<path d="M 1.3125 -0.8125 C 1.84375 -1.390625 2.140625 -1.640625 2.484375 -1.953125 C 2.484375 -1.953125 3.09375 -2.484375 3.453125 -2.828125 C 4.390625 -3.75 4.609375 -4.21875 4.609375 -4.265625 C 4.609375 -4.359375 4.515625 -4.359375 4.5 -4.359375 C 4.4375 -4.359375 4.40625 -4.34375 4.359375 -4.25 C 4.0625 -3.78125 3.84375 -3.625 3.609375 -3.625 C 3.375 -3.625 3.265625 -3.765625 3.109375 -3.9375 C 2.921875 -4.171875 2.75 -4.359375 2.421875 -4.359375 C 1.6875 -4.359375 1.234375 -3.453125 1.234375 -3.234375 C 1.234375 -3.1875 1.265625 -3.125 1.359375 -3.125 C 1.4375 -3.125 1.46875 -3.1875 1.484375 -3.234375 C 1.671875 -3.6875 2.234375 -3.703125 2.328125 -3.703125 C 2.53125 -3.703125 2.71875 -3.640625 2.9375 -3.5625 C 3.34375 -3.40625 3.453125 -3.40625 3.703125 -3.40625 C 3.34375 -2.984375 2.515625 -2.265625 2.328125 -2.109375 L 1.4375 -1.28125 C 0.765625 -0.625 0.421875 -0.0625 0.421875 0.015625 C 0.421875 0.109375 0.515625 0.109375 0.546875 0.109375 C 0.625 0.109375 0.640625 0.09375 0.703125 -0.015625 C 0.921875 -0.359375 1.21875 -0.625 1.546875 -0.625 C 1.765625 -0.625 1.859375 -0.546875 2.109375 -0.25 C 2.28125 -0.046875 2.453125 0.109375 2.75 0.109375 C 3.71875 0.109375 4.296875 -1.140625 4.296875 -1.40625 C 4.296875 -1.46875 4.25 -1.515625 4.171875 -1.515625 C 4.09375 -1.515625 4.0625 -1.453125 4.03125 -1.375 C 3.8125 -0.734375 3.1875 -0.546875 2.859375 -0.546875 C 2.65625 -0.546875 2.484375 -0.609375 2.265625 -0.6875 C 1.9375 -0.8125 1.78125 -0.84375 1.578125 -0.84375 C 1.5625 -0.84375 1.40625 -0.84375 1.3125 -0.8125 Z M 1.3125 -0.8125 "/>
</g>
<g id="glyph-1-0">
<path d="M 2.8125 -2.734375 L 3.484375 -2.734375 C 3.625 -2.734375 3.71875 -2.734375 3.71875 -2.875 C 3.71875 -2.984375 3.625 -2.984375 3.5 -2.984375 L 2.859375 -2.984375 C 3.015625 -3.859375 3.078125 -4.171875 3.125 -4.375 C 3.15625 -4.53125 3.3125 -4.671875 3.484375 -4.671875 C 3.484375 -4.671875 3.671875 -4.671875 3.8125 -4.578125 C 3.515625 -4.5 3.5 -4.25 3.5 -4.203125 C 3.5 -4.046875 3.625 -3.953125 3.78125 -3.953125 C 3.96875 -3.953125 4.171875 -4.109375 4.171875 -4.375 C 4.171875 -4.6875 3.828125 -4.859375 3.484375 -4.859375 C 3.171875 -4.859375 2.84375 -4.6875 2.65625 -4.34375 C 2.515625 -4.09375 2.453125 -3.78125 2.3125 -2.984375 L 1.765625 -2.984375 C 1.625 -2.984375 1.546875 -2.984375 1.546875 -2.828125 C 1.546875 -2.734375 1.625 -2.734375 1.75 -2.734375 L 2.265625 -2.734375 C 2.265625 -2.6875 1.828125 -0.203125 1.65625 0.53125 C 1.625 0.6875 1.5 1.21875 1.171875 1.21875 C 1.171875 1.21875 1 1.21875 0.875 1.125 C 1.15625 1.046875 1.171875 0.796875 1.171875 0.75 C 1.171875 0.59375 1.0625 0.5 0.890625 0.5 C 0.71875 0.5 0.5 0.65625 0.5 0.921875 C 0.5 1.234375 0.828125 1.40625 1.171875 1.40625 C 1.609375 1.40625 1.921875 0.953125 2 0.796875 C 2.25 0.34375 2.40625 -0.515625 2.421875 -0.59375 Z M 2.8125 -2.734375 "/>
</g>
<g id="glyph-1-1">
<path d="M 3.671875 -2.546875 C 3.703125 -2.65625 3.703125 -2.6875 3.703125 -2.6875 C 3.703125 -2.84375 3.578125 -2.921875 3.46875 -2.921875 C 3.3125 -2.921875 3.171875 -2.78125 3.15625 -2.65625 C 3.03125 -2.84375 2.796875 -3.046875 2.4375 -3.046875 C 1.578125 -3.046875 0.671875 -2.125 0.671875 -1.125 C 0.671875 -0.421875 1.15625 0 1.71875 0 C 2.03125 0 2.34375 -0.15625 2.578125 -0.375 L 2.4375 0.25 C 2.359375 0.53125 2.3125 0.71875 2.046875 0.953125 C 1.734375 1.21875 1.4375 1.21875 1.265625 1.21875 C 0.953125 1.21875 0.859375 1.1875 0.734375 1.171875 C 0.90625 1.078125 0.953125 0.921875 0.953125 0.828125 C 0.953125 0.65625 0.828125 0.5625 0.6875 0.5625 C 0.5 0.5625 0.296875 0.71875 0.296875 0.984375 C 0.296875 1.40625 0.890625 1.40625 1.28125 1.40625 C 2.359375 1.40625 2.828125 0.859375 2.921875 0.46875 Z M 2.71875 -0.921875 C 2.6875 -0.8125 2.6875 -0.796875 2.578125 -0.65625 C 2.328125 -0.375 2 -0.1875 1.734375 -0.1875 C 1.390625 -0.1875 1.21875 -0.484375 1.21875 -0.84375 C 1.21875 -1.15625 1.40625 -1.921875 1.59375 -2.234375 C 1.875 -2.71875 2.203125 -2.859375 2.4375 -2.859375 C 2.921875 -2.859375 3.046875 -2.328125 3.046875 -2.265625 C 3.046875 -2.25 3.046875 -2.234375 3.03125 -2.15625 Z M 2.71875 -0.921875 "/>
</g>
</g>
</defs>
<g fill="rgb(0%, 0%, 0%)" fill-opacity="1">
<use xlink:href="#glyph-0-0" x="12.918627" y="21.486375"/>
</g>
<g fill="rgb(0%, 0%, 0%)" fill-opacity="1">
<use xlink:href="#glyph-0-1" x="71.487652" y="21.486375"/>
</g>
<g fill="rgb(0%, 0%, 0%)" fill-opacity="1">
<use xlink:href="#glyph-0-2" x="71.571881" y="74.371415"/>
</g>
<path fill="none" stroke-width="0.39848" stroke-linecap="butt" stroke-linejoin="miter" stroke="rgb(0%, 0%, 0%)" stroke-opacity="1" stroke-miterlimit="10" d="M -21.992487 27.029418 L 22.043559 27.029418 " transform="matrix(0.990932, 0, 0, -0.990932, 44.800867, 45.803841)"/>
<path fill="none" stroke-width="0.39848" stroke-linecap="round" stroke-linejoin="round" stroke="rgb(0%, 0%, 0%)" stroke-opacity="1" stroke-miterlimit="10" d="M -2.07265 2.39127 C -1.694218 0.956383 -0.850631 0.27836 0.000840651 -0.00152214 C -0.850631 -0.277462 -1.694218 -0.955485 -2.07265 -2.390372 " transform="matrix(0.990932, 0, 0, -0.990932, 66.842917, 19.018023)"/>
<g fill="rgb(0%, 0%, 0%)" fill-opacity="1">
<use xlink:href="#glyph-1-0" x="42.711983" y="15.351516"/>
</g>
<path fill="none" stroke-width="0.39848" stroke-linecap="butt" stroke-linejoin="miter" stroke="rgb(0%, 0%, 0%)" stroke-opacity="1" stroke-miterlimit="10" d="M -22.335441 20.694629 L 23.033 -20.428281 " transform="matrix(0.990932, 0, 0, -0.990932, 44.800867, 45.803841)"/>
<path fill="none" stroke-width="0.39848" stroke-linecap="round" stroke-linejoin="round" stroke="rgb(0%, 0%, 0%)" stroke-opacity="1" stroke-miterlimit="10" d="M -2.073667 2.391278 C -1.694717 0.957669 -0.85164 0.279942 -0.000288619 -0.00187969 C -0.851139 -0.278269 -1.693833 -0.956954 -2.071183 -2.389711 " transform="matrix(0.734171, 0.66545, 0.66545, -0.734171, 67.770994, 66.1785)"/>
<g fill="rgb(0%, 0%, 0%)" fill-opacity="1">
<use xlink:href="#glyph-1-1" x="34.245462" y="52.925668"/>
</g>
<g fill="rgb(0%, 0%, 0%)" fill-opacity="1">
<use xlink:href="#glyph-1-0" x="38.345497" y="52.925668"/>
</g>
<path fill="none" stroke-width="0.39848" stroke-linecap="butt" stroke-linejoin="miter" stroke="rgb(0%, 0%, 0%)" stroke-opacity="1" stroke-miterlimit="10" d="M 29.553063 18.759109 L 29.553063 -20.298195 " transform="matrix(0.990932, 0, 0, -0.990932, 44.800867, 45.803841)"/>
<path fill="none" stroke-width="0.39848" stroke-linecap="round" stroke-linejoin="round" stroke="rgb(0%, 0%, 0%)" stroke-opacity="1" stroke-miterlimit="10" d="M -2.073865 2.389153 C -1.695434 0.958208 -0.851846 0.280184 -0.000375121 0.000302613 C -0.851846 -0.279579 -1.695434 -0.957603 -2.073865 -2.392489 " transform="matrix(0, 0.990932, 0.990932, 0, 74.085638, 66.113653)"/>
<g fill="rgb(0%, 0%, 0%)" fill-opacity="1">
<use xlink:href="#glyph-1-1" x="76.407629" y="47.579591"/>
</g>
</svg>
